<?xml version="1.0" encoding="utf-8"?>
<!-- Generator: Adobe Illustrator 23.1.1, SVG Export Plug-In . SVG Version: 6.00 Build 0)  -->
<svg version="1.1" id="Layer_1" xmlns="http://www.w3.org/2000/svg" xmlns:xlink="http://www.w3.org/1999/xlink" x="0px" y="0px"
	 viewBox="0 0 300 300" style="enable-background:new 0 0 300 300;" xml:space="preserve">
<style type="text/css">
	.st0{fill:#181C25;}
	.st1{fill:none;stroke:#FFFFFF;stroke-width:0.7087;stroke-linecap:round;stroke-linejoin:round;stroke-miterlimit:10;}
	.st2{fill:none;stroke:#8E2DE2;stroke-width:2;stroke-linecap:round;stroke-linejoin:round;stroke-miterlimit:10;}
</style>
<g>
	<g>
		<g>
			<rect class="st0" width="300" height="300"/>
		</g>
	</g>
</g>
<g>
	<line class="st1" x1="177.4" y1="261.3" x2="177.4" y2="258.3"/>
	<line class="st1" x1="117.8" y1="258.3" x2="117.8" y2="261.3"/>
	<line class="st1" x1="172.5" y1="258.3" x2="172.5" y2="261.3"/>
	<line class="st1" x1="179.9" y1="261.3" x2="179.9" y2="258.3"/>
	<line class="st1" x1="115.3" y1="258.3" x2="115.3" y2="261.3"/>
	<line class="st1" x1="122.7" y1="261.3" x2="122.7" y2="258.3"/>
	<line class="st1" x1="115.3" y1="258.3" x2="115.3" y2="261.3"/>
	<line class="st1" x1="122.7" y1="261.3" x2="122.7" y2="258.3"/>
	<line class="st1" x1="172.5" y1="258.3" x2="172.5" y2="261.3"/>
	<line class="st1" x1="179.9" y1="261.3" x2="179.9" y2="258.3"/>
	<line class="st1" x1="147.4" y1="258.3" x2="147.4" y2="261.3"/>
	<line class="st1" x1="147.8" y1="261.3" x2="147.8" y2="258.3"/>
	<line class="st1" x1="183" y1="258.3" x2="183" y2="261.3"/>
	<line class="st1" x1="183.5" y1="261.3" x2="183.5" y2="258.3"/>
	<line class="st1" x1="111.7" y1="258.3" x2="111.7" y2="261.3"/>
	<line class="st1" x1="112.2" y1="261.3" x2="112.2" y2="258.3"/>
	<line class="st1" x1="147.4" y1="258.3" x2="147.4" y2="261.3"/>
	<line class="st1" x1="147.8" y1="261.3" x2="147.8" y2="258.3"/>
	<line class="st1" x1="175.7" y1="258.3" x2="175.7" y2="261.3"/>
	<line class="st1" x1="176.7" y1="261.3" x2="176.7" y2="258.3"/>
	<line class="st1" x1="181.6" y1="258.3" x2="181.6" y2="261.3"/>
	<line class="st1" x1="182.6" y1="261.3" x2="182.6" y2="258.3"/>
	<line class="st1" x1="175.7" y1="258.3" x2="175.7" y2="261.3"/>
	<line class="st1" x1="176.7" y1="261.3" x2="176.7" y2="258.3"/>
	<line class="st1" x1="169.8" y1="258.3" x2="169.8" y2="261.3"/>
	<line class="st1" x1="170.9" y1="261.3" x2="170.9" y2="258.3"/>
	<line class="st1" x1="118.5" y1="258.3" x2="118.5" y2="261.3"/>
	<line class="st1" x1="119.5" y1="261.3" x2="119.5" y2="258.3"/>
	<line class="st1" x1="124.3" y1="258.3" x2="124.3" y2="261.3"/>
	<line class="st1" x1="125.4" y1="261.3" x2="125.4" y2="258.3"/>
	<line class="st1" x1="112.6" y1="258.3" x2="112.6" y2="261.3"/>
	<line class="st1" x1="113.6" y1="261.3" x2="113.6" y2="258.3"/>
	<line class="st1" x1="118.5" y1="258.3" x2="118.5" y2="261.3"/>
	<line class="st1" x1="119.5" y1="261.3" x2="119.5" y2="258.3"/>
	<line class="st1" x1="124.3" y1="258.3" x2="124.3" y2="261.3"/>
	<line class="st1" x1="125.4" y1="261.3" x2="125.4" y2="258.3"/>
	<line class="st1" x1="118.5" y1="258.3" x2="118.5" y2="261.3"/>
	<line class="st1" x1="119.5" y1="261.3" x2="119.5" y2="258.3"/>
	<line class="st1" x1="169.8" y1="258.3" x2="169.8" y2="261.3"/>
	<line class="st1" x1="170.9" y1="261.3" x2="170.9" y2="258.3"/>
	<line class="st1" x1="175.7" y1="258.3" x2="175.7" y2="261.3"/>
	<line class="st1" x1="176.7" y1="261.3" x2="176.7" y2="258.3"/>
	<line class="st1" x1="112.6" y1="258.3" x2="112.6" y2="261.3"/>
	<line class="st1" x1="113.6" y1="261.3" x2="113.6" y2="258.3"/>
	<line class="st1" x1="118.5" y1="258.3" x2="118.5" y2="261.3"/>
	<line class="st1" x1="119.5" y1="261.3" x2="119.5" y2="258.3"/>
	<line class="st1" x1="181.6" y1="258.3" x2="181.6" y2="261.3"/>
	<line class="st1" x1="182.6" y1="261.3" x2="182.6" y2="258.3"/>
	<line class="st1" x1="115.4" y1="258.3" x2="115.4" y2="261.3"/>
	<line class="st1" x1="116.6" y1="261.3" x2="116.6" y2="258.3"/>
	<line class="st1" x1="147" y1="258.3" x2="147" y2="261.3"/>
	<line class="st1" x1="148.2" y1="261.3" x2="148.2" y2="258.3"/>
	<line class="st1" x1="175.7" y1="258.3" x2="175.7" y2="261.3"/>
	<line class="st1" x1="176.7" y1="261.3" x2="176.7" y2="258.3"/>
	<line class="st1" x1="147" y1="258.3" x2="147" y2="261.3"/>
	<line class="st1" x1="148.2" y1="261.3" x2="148.2" y2="258.3"/>
	<line class="st1" x1="178.6" y1="258.3" x2="178.6" y2="261.3"/>
	<line class="st1" x1="179.8" y1="261.3" x2="179.8" y2="258.3"/>
	<line class="st1" x1="148.2" y1="258.3" x2="148.2" y2="256.5"/>
	<line class="st1" x1="147" y1="256.5" x2="147" y2="258.3"/>
	<line class="st1" x1="114.1" y1="256.5" x2="114.1" y2="258.3"/>
	<line class="st1" x1="181.1" y1="258.3" x2="181.1" y2="256.5"/>
	<line class="st1" x1="116.6" y1="258.3" x2="116.6" y2="256.5"/>
	<line class="st1" x1="115.4" y1="256.5" x2="115.4" y2="258.3"/>
	<path class="st1" d="M177.4,301.9c-0.4-14.9-0.4-28.9,0-43.6"/>
	<path class="st1" d="M117.8,258.3c0.2,14.7,0.2,28.7,0,43.6"/>
	<line class="st1" x1="148.2" y1="258.3" x2="148.2" y2="256.5"/>
	<line class="st1" x1="147" y1="256.5" x2="147" y2="258.3"/>
	<path class="st1" d="M175.5,301.9c0.5-14.9,0.5-29.9,0-45.4"/>
	<path class="st1" d="M119.7,256.5c0.3,15.5,0.3,30.5,0,45.4"/>
	<line class="st1" x1="179.8" y1="258.3" x2="179.8" y2="256.5"/>
	<line class="st1" x1="178.6" y1="256.5" x2="178.6" y2="258.3"/>
	<line class="st1" x1="96.5" y1="258.3" x2="100.3" y2="258.3"/>
	<line class="st1" x1="100.3" y1="258.3" x2="97.2" y2="258.3"/>
	<line class="st1" x1="198.7" y1="258.3" x2="194.9" y2="258.3"/>
	<line class="st1" x1="194.9" y1="258.3" x2="198" y2="258.3"/>
	<line class="st1" x1="145.7" y1="258.3" x2="149.5" y2="258.3"/>
	<line class="st1" x1="148.8" y1="258.3" x2="149.5" y2="258.3"/>
	<line class="st1" x1="146.4" y1="258.3" x2="148.8" y2="258.3"/>
	<line class="st1" x1="145.7" y1="258.3" x2="146.4" y2="258.3"/>
	<line class="st1" x1="149.5" y1="261.3" x2="198.7" y2="261.3"/>
	<line class="st1" x1="198.7" y1="258.3" x2="198.7" y2="261.3"/>
	<line class="st1" x1="149.5" y1="258.3" x2="198.7" y2="258.3"/>
	<line class="st1" x1="149.5" y1="258.3" x2="149.5" y2="261.3"/>
	<line class="st1" x1="145.7" y1="258.3" x2="145.7" y2="261.3"/>
	<line class="st1" x1="198.7" y1="261.3" x2="149.5" y2="261.3"/>
	<line class="st1" x1="96.5" y1="261.3" x2="96.5" y2="258.3"/>
	<line class="st1" x1="198.7" y1="258.3" x2="149.5" y2="258.3"/>
	<line class="st1" x1="96.5" y1="261.3" x2="145.7" y2="261.3"/>
	<line class="st1" x1="96.5" y1="258.3" x2="145.7" y2="258.3"/>
	<line class="st1" x1="147" y1="261.3" x2="148.2" y2="261.3"/>
	<line class="st1" x1="178.6" y1="261.3" x2="179.8" y2="261.3"/>
	<line class="st1" x1="148.2" y1="261.3" x2="147" y2="261.3"/>
	<line class="st1" x1="116.6" y1="261.3" x2="115.4" y2="261.3"/>
	<line class="st1" x1="176.7" y1="261.3" x2="175.7" y2="261.3"/>
	<line class="st1" x1="182.6" y1="261.3" x2="181.6" y2="261.3"/>
	<line class="st1" x1="175.7" y1="261.3" x2="176.7" y2="261.3"/>
	<line class="st1" x1="169.8" y1="261.3" x2="170.9" y2="261.3"/>
	<line class="st1" x1="112.6" y1="261.3" x2="113.6" y2="261.3"/>
	<line class="st1" x1="119.5" y1="261.3" x2="118.5" y2="261.3"/>
	<line class="st1" x1="125.4" y1="261.3" x2="124.3" y2="261.3"/>
	<line class="st1" x1="118.5" y1="261.3" x2="119.5" y2="261.3"/>
	<line class="st1" x1="118.5" y1="261.3" x2="119.5" y2="261.3"/>
	<line class="st1" x1="112.6" y1="261.3" x2="113.6" y2="261.3"/>
	<line class="st1" x1="119.5" y1="261.3" x2="118.5" y2="261.3"/>
	<line class="st1" x1="125.4" y1="261.3" x2="124.3" y2="261.3"/>
	<line class="st1" x1="175.7" y1="261.3" x2="176.7" y2="261.3"/>
	<line class="st1" x1="169.8" y1="261.3" x2="170.9" y2="261.3"/>
	<line class="st1" x1="176.7" y1="261.3" x2="175.7" y2="261.3"/>
	<line class="st1" x1="182.6" y1="261.3" x2="181.6" y2="261.3"/>
	<line class="st1" x1="111.7" y1="261.3" x2="112.2" y2="261.3"/>
	<line class="st1" x1="147.4" y1="261.3" x2="147.8" y2="261.3"/>
	<line class="st1" x1="183.5" y1="261.3" x2="183" y2="261.3"/>
	<line class="st1" x1="147.8" y1="261.3" x2="147.4" y2="261.3"/>
	<line class="st1" x1="115.3" y1="261.3" x2="122.7" y2="261.3"/>
	<line class="st1" x1="194.9" y1="261.3" x2="198.7" y2="261.3"/>
	<line class="st1" x1="179.9" y1="261.3" x2="172.5" y2="261.3"/>
	<line class="st1" x1="145.7" y1="261.3" x2="149.5" y2="261.3"/>
	<line class="st1" x1="115.3" y1="261.3" x2="122.7" y2="261.3"/>
	<line class="st1" x1="100.3" y1="261.3" x2="96.5" y2="261.3"/>
	<line class="st1" x1="179.9" y1="261.3" x2="172.5" y2="261.3"/>
	<line class="st1" x1="145.7" y1="261.3" x2="96.5" y2="261.3"/>
	<line class="st1" x1="177.4" y1="261.3" x2="117.8" y2="261.3"/>
	<line class="st1" x1="147" y1="258.3" x2="148.2" y2="258.3"/>
	<line class="st1" x1="178.6" y1="258.3" x2="179.8" y2="258.3"/>
	<line class="st1" x1="148.2" y1="258.3" x2="147" y2="258.3"/>
	<line class="st1" x1="116.6" y1="258.3" x2="115.4" y2="258.3"/>
	<line class="st1" x1="176.7" y1="258.3" x2="175.7" y2="258.3"/>
	<line class="st1" x1="182.6" y1="258.3" x2="181.6" y2="258.3"/>
	<line class="st1" x1="175.7" y1="258.3" x2="176.7" y2="258.3"/>
	<line class="st1" x1="169.8" y1="258.3" x2="170.9" y2="258.3"/>
	<line class="st1" x1="112.6" y1="258.3" x2="113.6" y2="258.3"/>
	<line class="st1" x1="119.5" y1="258.3" x2="118.5" y2="258.3"/>
	<line class="st1" x1="125.4" y1="258.3" x2="124.3" y2="258.3"/>
	<line class="st1" x1="118.5" y1="258.3" x2="119.5" y2="258.3"/>
	<line class="st1" x1="118.5" y1="258.3" x2="119.5" y2="258.3"/>
	<line class="st1" x1="112.6" y1="258.3" x2="113.6" y2="258.3"/>
	<line class="st1" x1="119.5" y1="258.3" x2="118.5" y2="258.3"/>
	<line class="st1" x1="125.4" y1="258.3" x2="124.3" y2="258.3"/>
	<line class="st1" x1="175.7" y1="258.3" x2="176.7" y2="258.3"/>
	<line class="st1" x1="169.8" y1="258.3" x2="170.9" y2="258.3"/>
	<line class="st1" x1="176.7" y1="258.3" x2="175.7" y2="258.3"/>
	<line class="st1" x1="182.6" y1="258.3" x2="181.6" y2="258.3"/>
	<line class="st1" x1="111.7" y1="258.3" x2="112.2" y2="258.3"/>
	<line class="st1" x1="147.4" y1="258.3" x2="147.8" y2="258.3"/>
	<line class="st1" x1="183.5" y1="258.3" x2="183" y2="258.3"/>
	<line class="st1" x1="147.8" y1="258.3" x2="147.4" y2="258.3"/>
	<line class="st1" x1="115.3" y1="258.3" x2="122.7" y2="258.3"/>
	<line class="st1" x1="96.5" y1="258.3" x2="100.3" y2="258.3"/>
	<line class="st1" x1="115.3" y1="258.3" x2="122.7" y2="258.3"/>
	<line class="st1" x1="145.7" y1="258.3" x2="96.5" y2="258.3"/>
	<line class="st1" x1="194.9" y1="258.3" x2="198.7" y2="258.3"/>
	<line class="st1" x1="100.3" y1="258.3" x2="100.3" y2="261.3"/>
	<line class="st1" x1="194.9" y1="258.3" x2="194.9" y2="261.3"/>
	<line class="st1" x1="179.9" y1="258.3" x2="172.5" y2="258.3"/>
	<line class="st1" x1="179.9" y1="258.3" x2="172.5" y2="258.3"/>
	<line class="st1" x1="177.4" y1="258.3" x2="117.8" y2="258.3"/>
	<line class="st1" x1="95.6" y1="234.9" x2="199.6" y2="234.9"/>
	<line class="st1" x1="96.4" y1="234.9" x2="198.8" y2="234.9"/>
	<line class="st1" x1="181.1" y1="258.3" x2="114.1" y2="258.3"/>
	<line class="st1" x1="181.1" y1="256.5" x2="114.1" y2="256.5"/>
	<line class="st1" x1="175.5" y1="256.5" x2="119.7" y2="256.5"/>
	<line class="st1" x1="148.2" y1="256.5" x2="147" y2="256.5"/>
	<line class="st1" x1="178.6" y1="256.5" x2="179.8" y2="256.5"/>
	<line class="st1" x1="147" y1="256.5" x2="148.2" y2="256.5"/>
	<line class="st1" x1="116.6" y1="256.5" x2="115.4" y2="256.5"/>
	<line class="st1" x1="96.4" y1="258.3" x2="198.8" y2="258.3"/>
	<line class="st1" x1="97.1" y1="258.3" x2="198.1" y2="258.3"/>
	<g>
		<path class="st1" d="M100.3,258.3c-0.3,14.7-0.3,28.7,0,43.7"/>
		<path class="st1" d="M97.2,258.3C97,273,97,287,97.2,302"/>
		<path class="st1" d="M149.5,258.3c0.5,14.7,0.5,28.7,0,43.7"/>
		<path class="st1" d="M145.7,258.3c0.3,14.7,0.3,28.7,0,43.7"/>
		<path class="st1" d="M148.8,258.3c0.2,14.7,0.2,28.7,0,43.7"/>
		<path class="st1" d="M146.4,258.3c-0.4,14.7-0.4,28.7,0,43.7"/>
		<path class="st1" d="M96.5,258.3C97,273,97,287,96.5,302"/>
		<path class="st1" d="M199.6,300.6c0.4-21.6,0.4-43.6,0-65.7"/>
		<path class="st1" d="M95.6,234.9c0.4,22.1,0.4,45.1,0,66.9"/>
		<path class="st1" d="M198.8,300.6c0.2-21.6,0.2-43.6,0-65.7"/>
		<path class="st1" d="M96.4,234.9c-0.4,22.1-0.4,45.1,0,67"/>
		<line class="st1" x1="198.8" y1="258.3" x2="198.8" y2="234.9"/>
		<line class="st1" x1="96.4" y1="234.9" x2="96.4" y2="258.3"/>
		<line class="st1" x1="198.1" y1="258.3" x2="198.1" y2="234.9"/>
		<line class="st1" x1="97.1" y1="234.9" x2="97.1" y2="258.3"/>
		<path class="st1" d="M198.7,258.3c0.3,13.7,0.3,28.7,0,42.4"/>
		<path class="st1" d="M198,258.3c0,13.7,0,28.7,0,42.4"/>
		<path class="st1" d="M194.9,258.3c0.1,13.7,0.1,28.7,0,42.4"/>
	</g>
	<g>
		<line class="st2" x1="97.1" y1="234.9" x2="198.1" y2="234.9"/>
		<path class="st2" d="M198.1,234.9c-16.8-103.8-33.7-207.6-50.5-207.6s-33.7,103.8-50.5,207.6"/>
		<path class="st2" d="M199.6,234.9c-17.3-106.9-34.7-213.8-52-213.8s-34.7,106.9-52,213.8"/>
	</g>
</g>
</svg>
