<?xml version="1.0" encoding="utf-8"?>
<!-- Generator: Adobe Illustrator 23.1.1, SVG Export Plug-In . SVG Version: 6.00 Build 0)  -->
<svg version="1.1" id="Layer_1" xmlns="http://www.w3.org/2000/svg" xmlns:xlink="http://www.w3.org/1999/xlink" x="0px" y="0px"
	 viewBox="0 0 300 300" style="enable-background:new 0 0 300 300;" xml:space="preserve">
<style type="text/css">
	.st0{fill:#181C25;}
	.st1{fill:none;stroke:#FFFFFF;stroke-width:0.7087;stroke-linecap:round;stroke-linejoin:round;stroke-miterlimit:10;}
	.st2{fill:none;stroke:#8E2DE2;stroke-width:2;stroke-linecap:round;stroke-linejoin:round;stroke-miterlimit:10;}
	.st3{fill:#FFFFFF;}
</style>
<g>
	<g>
		<g>
			<rect class="st0" width="300" height="300"/>
		</g>
	</g>
</g>
<g>
	<line class="st1" x1="142.2" y1="77.3" x2="142.2" y2="72.7"/>
	<line class="st1" x1="52.6" y1="72.7" x2="52.6" y2="77.3"/>
	<line class="st1" x1="134.9" y1="72.7" x2="134.9" y2="77.3"/>
	<line class="st1" x1="146" y1="77.3" x2="146" y2="72.7"/>
	<line class="st1" x1="48.9" y1="72.7" x2="48.9" y2="77.3"/>
	<line class="st1" x1="60" y1="77.3" x2="60" y2="72.7"/>
	<line class="st1" x1="48.9" y1="72.7" x2="48.9" y2="77.3"/>
	<line class="st1" x1="60" y1="77.3" x2="60" y2="72.7"/>
	<line class="st1" x1="134.9" y1="72.7" x2="134.9" y2="77.3"/>
	<line class="st1" x1="146" y1="77.3" x2="146" y2="72.7"/>
	<line class="st1" x1="97.1" y1="72.7" x2="97.1" y2="77.3"/>
	<line class="st1" x1="97.7" y1="77.3" x2="97.7" y2="72.7"/>
	<line class="st1" x1="150.7" y1="72.7" x2="150.7" y2="77.3"/>
	<line class="st1" x1="151.4" y1="77.3" x2="151.4" y2="72.7"/>
	<line class="st1" x1="43.5" y1="72.7" x2="43.5" y2="77.3"/>
	<line class="st1" x1="44.2" y1="77.3" x2="44.2" y2="72.7"/>
	<line class="st1" x1="97.1" y1="72.7" x2="97.1" y2="77.3"/>
	<line class="st1" x1="97.7" y1="77.3" x2="97.7" y2="72.7"/>
	<line class="st1" x1="139.7" y1="72.7" x2="139.7" y2="77.3"/>
	<line class="st1" x1="141.2" y1="77.3" x2="141.2" y2="72.7"/>
	<line class="st1" x1="148.6" y1="72.7" x2="148.6" y2="77.3"/>
	<line class="st1" x1="150.1" y1="77.3" x2="150.1" y2="72.7"/>
	<line class="st1" x1="139.7" y1="72.7" x2="139.7" y2="77.3"/>
	<line class="st1" x1="141.2" y1="77.3" x2="141.2" y2="72.7"/>
	<line class="st1" x1="130.8" y1="72.7" x2="130.8" y2="77.3"/>
	<line class="st1" x1="132.5" y1="77.3" x2="132.5" y2="72.7"/>
	<line class="st1" x1="53.7" y1="72.7" x2="53.7" y2="77.3"/>
	<line class="st1" x1="55.2" y1="77.3" x2="55.2" y2="72.7"/>
	<line class="st1" x1="62.4" y1="72.7" x2="62.4" y2="77.3"/>
	<line class="st1" x1="64.1" y1="77.3" x2="64.1" y2="72.7"/>
	<line class="st1" x1="44.8" y1="72.7" x2="44.8" y2="77.3"/>
	<line class="st1" x1="46.3" y1="77.3" x2="46.3" y2="72.7"/>
	<line class="st1" x1="53.7" y1="72.7" x2="53.7" y2="77.3"/>
	<line class="st1" x1="55.2" y1="77.3" x2="55.2" y2="72.7"/>
	<line class="st1" x1="62.4" y1="72.7" x2="62.4" y2="77.3"/>
	<line class="st1" x1="64.1" y1="77.3" x2="64.1" y2="72.7"/>
	<line class="st1" x1="53.7" y1="72.7" x2="53.7" y2="77.3"/>
	<line class="st1" x1="55.2" y1="77.3" x2="55.2" y2="72.7"/>
	<line class="st1" x1="130.8" y1="72.7" x2="130.8" y2="77.3"/>
	<line class="st1" x1="132.5" y1="77.3" x2="132.5" y2="72.7"/>
	<line class="st1" x1="139.7" y1="72.7" x2="139.7" y2="77.3"/>
	<line class="st1" x1="141.2" y1="77.3" x2="141.2" y2="72.7"/>
	<line class="st1" x1="44.8" y1="72.7" x2="44.8" y2="77.3"/>
	<line class="st1" x1="46.3" y1="77.3" x2="46.3" y2="72.7"/>
	<line class="st1" x1="53.7" y1="72.7" x2="53.7" y2="77.3"/>
	<line class="st1" x1="55.2" y1="77.3" x2="55.2" y2="72.7"/>
	<line class="st1" x1="148.6" y1="72.7" x2="148.6" y2="77.3"/>
	<line class="st1" x1="150.1" y1="77.3" x2="150.1" y2="72.7"/>
	<line class="st1" x1="49" y1="72.7" x2="49" y2="77.3"/>
	<line class="st1" x1="50.8" y1="77.3" x2="50.8" y2="72.7"/>
	<line class="st1" x1="96.5" y1="72.7" x2="96.5" y2="77.3"/>
	<line class="st1" x1="98.3" y1="77.3" x2="98.3" y2="72.7"/>
	<line class="st1" x1="139.7" y1="72.7" x2="139.7" y2="77.3"/>
	<line class="st1" x1="141.2" y1="77.3" x2="141.2" y2="72.7"/>
	<line class="st1" x1="96.5" y1="72.7" x2="96.5" y2="77.3"/>
	<line class="st1" x1="98.3" y1="77.3" x2="98.3" y2="72.7"/>
	<line class="st1" x1="144" y1="72.7" x2="144" y2="77.3"/>
	<line class="st1" x1="145.9" y1="77.3" x2="145.9" y2="72.7"/>
	<line class="st1" x1="152.3" y1="255.6" x2="152.3" y2="253.3"/>
	<line class="st1" x1="140.6" y1="253.3" x2="140.6" y2="255.6"/>
	<line class="st1" x1="35.9" y1="253.3" x2="35.9" y2="255.6"/>
	<line class="st1" x1="158.9" y1="255.6" x2="158.9" y2="253.3"/>
	<line class="st1" x1="152.3" y1="255.6" x2="152.3" y2="253.3"/>
	<line class="st1" x1="140.6" y1="253.3" x2="140.6" y2="255.6"/>
	<line class="st1" x1="54.3" y1="255.6" x2="54.3" y2="253.3"/>
	<line class="st1" x1="42.6" y1="253.3" x2="42.6" y2="255.6"/>
	<line class="st1" x1="54.3" y1="255.6" x2="54.3" y2="253.3"/>
	<line class="st1" x1="42.6" y1="253.3" x2="42.6" y2="255.6"/>
	<line class="st1" x1="98.5" y1="249" x2="98.5" y2="239.9"/>
	<line class="st1" x1="96.4" y1="239.9" x2="96.4" y2="249"/>
	<path class="st1" d="M154.6,305c-1.9-20.8-15.5-39.4-34.8-47.5c-5.5-2.3-11.3-3.7-17.3-4.2"/>
	<path class="st1" d="M92.3,253.3C67,256,42,277,40.5,302.7"/>
	<path class="st1" d="M151.8,305.1c-2-20.8-16.3-39.1-36-46.1c-19.9-7.1-42.6-1.7-57.3,13.4c-8.1,8.3-13.5,19.2-15,30.8"/>
	<path class="st1" d="M92.3,253.3c2.3-0.2,4.1-2.1,4.1-4.4"/>
	<path class="st1" d="M98.5,249c0,2.3,1.8,4.2,4.1,4.4"/>
	<line class="st1" x1="98.3" y1="72.7" x2="98.3" y2="70"/>
	<line class="st1" x1="96.5" y1="70" x2="96.5" y2="72.7"/>
	<line class="st1" x1="47.1" y1="70" x2="47.1" y2="72.7"/>
	<line class="st1" x1="147.8" y1="72.7" x2="147.8" y2="70"/>
	<line class="st1" x1="50.8" y1="72.7" x2="50.8" y2="70"/>
	<line class="st1" x1="49" y1="70" x2="49" y2="72.7"/>
	<line class="st1" x1="142.2" y1="195.9" x2="142.2" y2="72.7"/>
	<line class="st1" x1="52.6" y1="72.7" x2="52.6" y2="195.9"/>
	<line class="st1" x1="98.3" y1="72.7" x2="98.3" y2="70"/>
	<line class="st1" x1="96.5" y1="70" x2="96.5" y2="72.7"/>
	<line class="st1" x1="139.4" y1="190.3" x2="139.4" y2="70"/>
	<line class="st1" x1="55.5" y1="70" x2="55.5" y2="190.3"/>
	<line class="st1" x1="145.9" y1="72.7" x2="145.9" y2="70"/>
	<line class="st1" x1="144" y1="70" x2="144" y2="72.7"/>
	<line class="st1" x1="20.6" y1="72.7" x2="26.3" y2="72.7"/>
	<line class="st1" x1="26.3" y1="72.7" x2="21.7" y2="72.7"/>
	<line class="st1" x1="174.3" y1="72.7" x2="168.6" y2="72.7"/>
	<line class="st1" x1="168.6" y1="72.7" x2="173.2" y2="72.7"/>
	<line class="st1" x1="94.6" y1="72.7" x2="100.3" y2="72.7"/>
	<line class="st1" x1="99.2" y1="72.7" x2="100.3" y2="72.7"/>
	<line class="st1" x1="95.6" y1="72.7" x2="99.2" y2="72.7"/>
	<line class="st1" x1="94.6" y1="72.7" x2="95.6" y2="72.7"/>
	<line class="st1" x1="100.3" y1="77.3" x2="174.3" y2="77.3"/>
	<line class="st1" x1="174.3" y1="72.7" x2="174.3" y2="77.3"/>
	<line class="st1" x1="100.3" y1="72.7" x2="174.3" y2="72.7"/>
	<line class="st1" x1="100.3" y1="72.7" x2="100.3" y2="77.3"/>
	<line class="st1" x1="94.6" y1="72.7" x2="94.6" y2="77.3"/>
	<line class="st1" x1="174.3" y1="77.3" x2="100.3" y2="77.3"/>
	<line class="st1" x1="20.6" y1="77.3" x2="20.6" y2="72.7"/>
	<line class="st1" x1="174.3" y1="72.7" x2="100.3" y2="72.7"/>
	<line class="st1" x1="20.6" y1="77.3" x2="94.6" y2="77.3"/>
	<line class="st1" x1="20.6" y1="72.7" x2="94.6" y2="72.7"/>
	<line class="st1" x1="96.5" y1="77.3" x2="98.3" y2="77.3"/>
	<line class="st1" x1="144" y1="77.3" x2="145.9" y2="77.3"/>
	<line class="st1" x1="98.3" y1="77.3" x2="96.5" y2="77.3"/>
	<line class="st1" x1="50.8" y1="77.3" x2="49" y2="77.3"/>
	<line class="st1" x1="141.2" y1="77.3" x2="139.7" y2="77.3"/>
	<line class="st1" x1="150.1" y1="77.3" x2="148.6" y2="77.3"/>
	<line class="st1" x1="139.7" y1="77.3" x2="141.2" y2="77.3"/>
	<line class="st1" x1="130.8" y1="77.3" x2="132.5" y2="77.3"/>
	<line class="st1" x1="44.8" y1="77.3" x2="46.3" y2="77.3"/>
	<line class="st1" x1="55.2" y1="77.3" x2="53.7" y2="77.3"/>
	<line class="st1" x1="64.1" y1="77.3" x2="62.4" y2="77.3"/>
	<line class="st1" x1="53.7" y1="77.3" x2="55.2" y2="77.3"/>
	<line class="st1" x1="53.7" y1="77.3" x2="55.2" y2="77.3"/>
	<line class="st1" x1="44.8" y1="77.3" x2="46.3" y2="77.3"/>
	<line class="st1" x1="55.2" y1="77.3" x2="53.7" y2="77.3"/>
	<line class="st1" x1="64.1" y1="77.3" x2="62.4" y2="77.3"/>
	<line class="st1" x1="139.7" y1="77.3" x2="141.2" y2="77.3"/>
	<line class="st1" x1="130.8" y1="77.3" x2="132.5" y2="77.3"/>
	<line class="st1" x1="141.2" y1="77.3" x2="139.7" y2="77.3"/>
	<line class="st1" x1="150.1" y1="77.3" x2="148.6" y2="77.3"/>
	<line class="st1" x1="43.5" y1="77.3" x2="44.2" y2="77.3"/>
	<line class="st1" x1="97.1" y1="77.3" x2="97.7" y2="77.3"/>
	<line class="st1" x1="151.4" y1="77.3" x2="150.7" y2="77.3"/>
	<line class="st1" x1="97.7" y1="77.3" x2="97.1" y2="77.3"/>
	<line class="st1" x1="48.9" y1="77.3" x2="60" y2="77.3"/>
	<line class="st1" x1="168.6" y1="77.3" x2="174.3" y2="77.3"/>
	<line class="st1" x1="146" y1="77.3" x2="134.9" y2="77.3"/>
	<line class="st1" x1="94.6" y1="77.3" x2="100.3" y2="77.3"/>
	<line class="st1" x1="48.9" y1="77.3" x2="60" y2="77.3"/>
	<line class="st1" x1="26.3" y1="77.3" x2="20.6" y2="77.3"/>
	<line class="st1" x1="146" y1="77.3" x2="134.9" y2="77.3"/>
	<line class="st1" x1="94.6" y1="77.3" x2="20.6" y2="77.3"/>
	<line class="st1" x1="142.2" y1="77.3" x2="52.6" y2="77.3"/>
	<line class="st1" x1="96.5" y1="72.7" x2="98.3" y2="72.7"/>
	<line class="st1" x1="144" y1="72.7" x2="145.9" y2="72.7"/>
	<line class="st1" x1="98.3" y1="72.7" x2="96.5" y2="72.7"/>
	<line class="st1" x1="50.8" y1="72.7" x2="49" y2="72.7"/>
	<line class="st1" x1="141.2" y1="72.7" x2="139.7" y2="72.7"/>
	<line class="st1" x1="150.1" y1="72.7" x2="148.6" y2="72.7"/>
	<line class="st1" x1="139.7" y1="72.7" x2="141.2" y2="72.7"/>
	<line class="st1" x1="130.8" y1="72.7" x2="132.5" y2="72.7"/>
	<line class="st1" x1="44.8" y1="72.7" x2="46.3" y2="72.7"/>
	<line class="st1" x1="55.2" y1="72.7" x2="53.7" y2="72.7"/>
	<line class="st1" x1="64.1" y1="72.7" x2="62.4" y2="72.7"/>
	<line class="st1" x1="53.7" y1="72.7" x2="55.2" y2="72.7"/>
	<line class="st1" x1="53.7" y1="72.7" x2="55.2" y2="72.7"/>
	<line class="st1" x1="44.8" y1="72.7" x2="46.3" y2="72.7"/>
	<line class="st1" x1="55.2" y1="72.7" x2="53.7" y2="72.7"/>
	<line class="st1" x1="64.1" y1="72.7" x2="62.4" y2="72.7"/>
	<line class="st1" x1="139.7" y1="72.7" x2="141.2" y2="72.7"/>
	<line class="st1" x1="130.8" y1="72.7" x2="132.5" y2="72.7"/>
	<line class="st1" x1="141.2" y1="72.7" x2="139.7" y2="72.7"/>
	<line class="st1" x1="150.1" y1="72.7" x2="148.6" y2="72.7"/>
	<line class="st1" x1="43.5" y1="72.7" x2="44.2" y2="72.7"/>
	<line class="st1" x1="97.1" y1="72.7" x2="97.7" y2="72.7"/>
	<line class="st1" x1="151.4" y1="72.7" x2="150.7" y2="72.7"/>
	<line class="st1" x1="97.7" y1="72.7" x2="97.1" y2="72.7"/>
	<line class="st1" x1="48.9" y1="72.7" x2="60" y2="72.7"/>
	<line class="st1" x1="20.6" y1="72.7" x2="26.3" y2="72.7"/>
	<line class="st1" x1="48.9" y1="72.7" x2="60" y2="72.7"/>
	<line class="st1" x1="94.6" y1="72.7" x2="20.6" y2="72.7"/>
	<line class="st1" x1="168.6" y1="72.7" x2="174.3" y2="72.7"/>
	<line class="st1" x1="26.3" y1="72.7" x2="26.3" y2="77.3"/>
	<line class="st1" x1="168.6" y1="72.7" x2="168.6" y2="77.3"/>
	<line class="st1" x1="146" y1="72.7" x2="134.9" y2="72.7"/>
	<line class="st1" x1="146" y1="72.7" x2="134.9" y2="72.7"/>
	<line class="st1" x1="142.2" y1="72.7" x2="52.6" y2="72.7"/>
	<line class="st1" x1="100.3" y1="253.3" x2="174.3" y2="253.3"/>
	<line class="st1" x1="174.3" y1="255.6" x2="174.3" y2="253.3"/>
	<line class="st1" x1="174.3" y1="255.6" x2="100.3" y2="255.6"/>
	<line class="st1" x1="100.3" y1="255.6" x2="100.3" y2="253.3"/>
	<line class="st1" x1="20.6" y1="255.6" x2="94.6" y2="255.6"/>
	<line class="st1" x1="94.6" y1="255.6" x2="94.6" y2="253.3"/>
	<line class="st1" x1="20.6" y1="253.3" x2="94.6" y2="253.3"/>
	<line class="st1" x1="20.6" y1="253.3" x2="20.6" y2="255.6"/>
	<line class="st1" x1="42.7" y1="253.3" x2="54.3" y2="253.3"/>
	<line class="st1" x1="152.3" y1="253.3" x2="140.6" y2="253.3"/>
	<line class="st1" x1="42.6" y1="253.3" x2="54.3" y2="253.3"/>
	<line class="st1" x1="152.2" y1="253.3" x2="140.6" y2="253.3"/>
	<line class="st1" x1="168.6" y1="253.3" x2="174.3" y2="253.3"/>
	<line class="st1" x1="174.3" y1="253.3" x2="100.3" y2="253.3"/>
	<line class="st1" x1="100.3" y1="255.6" x2="174.3" y2="255.6"/>
	<line class="st1" x1="26.3" y1="253.3" x2="20.6" y2="253.3"/>
	<line class="st1" x1="94.6" y1="253.3" x2="20.6" y2="253.3"/>
	<line class="st1" x1="100.3" y1="253.3" x2="94.6" y2="253.3"/>
	<line class="st1" x1="158.9" y1="253.3" x2="35.9" y2="253.3"/>
	<line class="st1" x1="42.7" y1="255.6" x2="54.3" y2="255.6"/>
	<line class="st1" x1="100.3" y1="255.6" x2="94.6" y2="255.6"/>
	<line class="st1" x1="152.2" y1="255.6" x2="140.6" y2="255.6"/>
	<line class="st1" x1="26.3" y1="255.6" x2="20.6" y2="255.6"/>
	<line class="st1" x1="152.3" y1="255.6" x2="140.6" y2="255.6"/>
	<line class="st1" x1="94.6" y1="255.6" x2="20.6" y2="255.6"/>
	<line class="st1" x1="168.6" y1="255.6" x2="174.3" y2="255.6"/>
	<line class="st1" x1="42.6" y1="255.6" x2="54.3" y2="255.6"/>
	<line class="st1" x1="158.9" y1="255.6" x2="35.9" y2="255.6"/>
	<line class="st1" x1="26.3" y1="255.6" x2="26.3" y2="253.3"/>
	<line class="st1" x1="168.6" y1="255.6" x2="168.6" y2="253.3"/>
	<line class="st1" x1="19.3" y1="37.6" x2="175.6" y2="37.6"/>
	<line class="st1" x1="20.5" y1="37.6" x2="174.4" y2="37.6"/>
	<line class="st1" x1="98.5" y1="239.9" x2="96.4" y2="239.9"/>
	<line class="st1" x1="92.3" y1="253.3" x2="102.6" y2="253.3"/>
	<line class="st1" x1="96.4" y1="249" x2="98.5" y2="249"/>
	<line class="st1" x1="52.6" y1="195.9" x2="142.2" y2="195.9"/>
	<line class="st1" x1="147.8" y1="72.7" x2="47.1" y2="72.7"/>
	<line class="st1" x1="147.8" y1="70" x2="47.1" y2="70"/>
	<line class="st1" x1="139.4" y1="70" x2="55.5" y2="70"/>
	<line class="st1" x1="98.3" y1="70" x2="96.5" y2="70"/>
	<line class="st1" x1="144" y1="70" x2="145.9" y2="70"/>
	<line class="st1" x1="96.5" y1="70" x2="98.3" y2="70"/>
	<line class="st1" x1="50.8" y1="70" x2="49" y2="70"/>
	<line class="st1" x1="139.4" y1="190.3" x2="55.5" y2="190.3"/>
	<line class="st1" x1="21.5" y1="37.6" x2="173.4" y2="37.6"/>
	<line class="st1" x1="20.5" y1="72.7" x2="174.4" y2="72.7"/>
	<line class="st1" x1="21.5" y1="72.7" x2="173.4" y2="72.7"/>
	<g>
		<path class="st1" d="M26.3,72.7C26,149,26,226,26.4,302.4"/>
		<path class="st1" d="M21.7,72.7C22,149,22,226,21.8,302.4"/>
		<path class="st1" d="M100.3,72.7C100,150,100,226,100.2,303.4"/>
		<path class="st1" d="M94.6,72.7C93,150,94,227,94.3,304"/>
		<path class="st1" d="M99.2,72.7C99,150,99,227,98.9,304"/>
		<path class="st1" d="M95.6,72.7C96,150,96,227,95.6,304"/>
		<path class="st1" d="M20.6,72.7C22,149,19,226,20.5,302.4"/>
		<path class="st1" d="M175.5,303.8C175,215,175,127,175.6,37.6"/>
		<path class="st1" d="M19.3,37.6C19,126,19,214,19.1,302.1"/>
		<path class="st1" d="M174.1,303.8C174,215,174,127,174.4,37.6"/>
		<path class="st1" d="M20.5,37.6C20,126,20,214,20.5,302.1"/>
		<line class="st1" x1="174.4" y1="72.7" x2="174.4" y2="37.6"/>
		<line class="st1" x1="20.5" y1="37.6" x2="20.5" y2="72.7"/>
		<line class="st1" x1="173.4" y1="72.7" x2="173.4" y2="37.6"/>
		<line class="st1" x1="21.5" y1="37.6" x2="21.5" y2="72.7"/>
		<path class="st1" d="M28.3-4.4c-2.3,14-4.6,28-6.8,42"/>
		<path class="st1" d="M173.4,37.6c-2.2-13.8-4.5-27.6-6.7-41.3"/>
		<path class="st1" d="M26-3.8c-2.2,13.8-4.5,27.6-6.7,41.3"/>
		<path class="st1" d="M175.6,37.6c-2.2-13.5-4.4-27.1-6.6-40.6"/>
		<path class="st1" d="M174.3,72.7C174,150,174,227,174,304.1"/>
		<path class="st1" d="M173.2,72.7C174,150,174,227,173.5,304.1"/>
		<path class="st1" d="M168.6,72.7C169,150,169,227,168.9,304.1"/>
	</g>
	<rect x="52.6" y="190.3" class="st2" width="89.6" height="5.6"/>
	<title>Code</title>
	<title>Connection signal</title>
	<title>Iot platform</title>
	<title>Chip</title>
	<path class="st3" d="M260.2,161.5h-6.4v-6.4h-3.2v14.4H225v-25.6h14.4v-3.2H233v-6.4h-3.2v6.4H225c-1.8,0-3.2,1.4-3.2,3.2v4.8h-6.4
		v3.2h6.4v9.6h-6.4v3.2h6.4v4.8c0,1.8,1.4,3.2,3.2,3.2h4.8v6.4h3.2v-6.4h9.6v6.4h3.2v-6.4h4.8c1.8,0,3.2-1.4,3.2-3.2v-4.8h6.4V161.5
		z"/>
	<path class="st3" d="M245.7,164.7h-16v-16h16V164.7z M232.9,161.5h9.6v-9.6h-9.6V161.5z M261.8,151.9h-3.2c0-8.8-7.2-16-16-16v-3.2
		C253.1,132.6,261.8,141.3,261.8,151.9z"/>
	<path class="st3" d="M253.7,151.9h-3.2c0-4.4-3.6-8-8-8v-3.2C248.7,140.7,253.7,145.7,253.7,151.9z"/>
	<title>Iot platform</title>
</g>
</svg>
