<?xml version="1.0" encoding="utf-8"?>
<!-- Generator: Adobe Illustrator 23.1.1, SVG Export Plug-In . SVG Version: 6.00 Build 0)  -->
<svg version="1.1" id="Layer_1" xmlns="http://www.w3.org/2000/svg" xmlns:xlink="http://www.w3.org/1999/xlink" x="0px" y="0px"
	 viewBox="0 0 300 300" style="enable-background:new 0 0 300 300;" xml:space="preserve">
<style type="text/css">
	.st0{fill:#181C25;}
	.st1{fill:none;stroke:#FFFFFF;stroke-width:0.7087;stroke-linecap:round;stroke-linejoin:round;stroke-miterlimit:10;}
	.st2{fill:none;stroke:#8E2DE2;stroke-width:2;stroke-linecap:round;stroke-linejoin:round;stroke-miterlimit:10;}
</style>
<g>
	<g>
		<g>
			<g>
				<rect x="-1.2" y="-0.5" class="st0" width="304.4" height="300.5"/>
			</g>
		</g>
	</g>
	<g id="Layer_3">
		<line class="st1" x1="115.3" y1="103" x2="115.3" y2="107.5"/>
		<line class="st1" x1="185.3" y1="107.5" x2="185.3" y2="103"/>
		<line class="st1" x1="101.6" y1="107.5" x2="101.6" y2="103"/>
		<line class="st1" x1="97.4" y1="103" x2="97.4" y2="107.5"/>
		<line class="st1" x1="106" y1="107.5" x2="106" y2="103"/>
		<line class="st1" x1="101.7" y1="103" x2="101.7" y2="107.5"/>
		<line class="st1" x1="106" y1="107.5" x2="106" y2="103"/>
		<line class="st1" x1="101.7" y1="103" x2="101.7" y2="107.5"/>
		<line class="st1" x1="118.3" y1="107.5" x2="118.3" y2="103"/>
		<line class="st1" x1="114.1" y1="103" x2="114.1" y2="107.5"/>
		<line class="st1" x1="157.7" y1="107.5" x2="157.7" y2="103"/>
		<line class="st1" x1="153.3" y1="103" x2="153.3" y2="107.5"/>
		<line class="st1" x1="136.7" y1="107.5" x2="136.7" y2="103"/>
		<line class="st1" x1="132.4" y1="103" x2="132.4" y2="107.5"/>
		<line class="st1" x1="177.9" y1="107.5" x2="177.9" y2="103"/>
		<line class="st1" x1="173.5" y1="103" x2="173.5" y2="107.5"/>
		<line class="st1" x1="193.6" y1="107.5" x2="193.6" y2="103"/>
		<line class="st1" x1="189.2" y1="103" x2="189.2" y2="107.5"/>
		<line class="st1" x1="202" y1="107.5" x2="202" y2="103"/>
		<line class="st1" x1="197.7" y1="103" x2="197.7" y2="107.5"/>
		<line class="st1" x1="202" y1="107.5" x2="202" y2="103"/>
		<line class="st1" x1="197.7" y1="103" x2="197.7" y2="107.5"/>
		<line class="st1" x1="157.7" y1="107.5" x2="157.7" y2="103"/>
		<line class="st1" x1="153.3" y1="103" x2="153.3" y2="107.5"/>
		<line class="st1" x1="193.6" y1="107.5" x2="193.6" y2="103"/>
		<line class="st1" x1="189.2" y1="103" x2="189.2" y2="107.5"/>
		<line class="st1" x1="136.7" y1="107.5" x2="136.7" y2="103"/>
		<line class="st1" x1="132.4" y1="103" x2="132.4" y2="107.5"/>
		<line class="st1" x1="177.9" y1="107.5" x2="177.9" y2="103"/>
		<line class="st1" x1="173.5" y1="103" x2="173.5" y2="107.5"/>
		<line class="st1" x1="118.3" y1="107.5" x2="118.3" y2="103"/>
		<line class="st1" x1="114.1" y1="103" x2="114.1" y2="107.5"/>
		<line class="st1" x1="75.7" y1="107.5" x2="75.7" y2="103"/>
		<line class="st1" x1="73.8" y1="103" x2="73.8" y2="107.5"/>
		<line class="st1" x1="151.2" y1="107.5" x2="151.2" y2="103"/>
		<line class="st1" x1="149.4" y1="103" x2="149.4" y2="107.5"/>
		<line class="st1" x1="226.7" y1="107.5" x2="226.7" y2="103"/>
		<line class="st1" x1="224.8" y1="103" x2="224.8" y2="107.5"/>
		<line class="st1" x1="151.2" y1="107.5" x2="151.2" y2="103"/>
		<line class="st1" x1="149.4" y1="103" x2="149.4" y2="107.5"/>
		<line class="st1" x1="149.1" y1="4.8" x2="149.1" y2="13.9"/>
		<line class="st1" x1="151.4" y1="13.9" x2="151.4" y2="4.8"/>
		<path class="st1" d="M107.1-16.2C117.5-6.7,130.9-0.8,145,0.4"/>
		<path class="st1" d="M155.5,0.2c14.7-1.2,28.7-7.6,39.2-17.9"/>
		<path class="st1" d="M111.6-16.1c22.3,18.9,57.8,17.9,79.1-1.5"/>
		<path class="st1" d="M155.5,0.2c-2.3,0.2-4.2,2.1-4.2,4.4"/>
		<path class="st1" d="M149.1,4.8c0-2.3-1.8-4.3-4.2-4.4"/>
		<line class="st1" x1="211.4" y1="108.6" x2="211.4" y2="59"/>
		<line class="st1" x1="89.1" y1="59" x2="89.1" y2="108.6"/>
		<line class="st1" x1="206.7" y1="113" x2="206.7" y2="107.5"/>
		<line class="st1" x1="93.9" y1="107.5" x2="93.9" y2="113"/>
		<line class="st1" x1="189.7" y1="109.5" x2="110.8" y2="109.5"/>
		<line class="st1" x1="189.7" y1="109.5" x2="110.8" y2="109.5"/>
		<path class="st1" d="M114.3,112.2c-0.4-1.6-1.9-2.8-3.5-2.7"/>
		<path class="st1" d="M110.8,109.5c-1.7,0-3.1,1.2-3.5,2.8"/>
		<path class="st1" d="M189.7,109.5c-1.6,0-3.1,1-3.5,2.6"/>
		<path class="st1" d="M193.3,112.6c-0.2-1.8-1.8-3.1-3.6-3"/>
		<path class="st1" d="M195.9,113"/>
		<path class="st1" d="M194.3,115.7"/>
		<path class="st1" d="M104.6,113"/>
		<line class="st1" x1="118.3" y1="113" x2="118.3" y2="107.5"/>
		<line class="st1" x1="114.1" y1="107.5" x2="114.1" y2="113"/>
		<line class="st1" x1="106" y1="113" x2="106" y2="107.5"/>
		<line class="st1" x1="101.7" y1="107.5" x2="101.7" y2="113"/>
		<line class="st1" x1="101.6" y1="113" x2="101.6" y2="107.5"/>
		<line class="st1" x1="97.4" y1="107.5" x2="97.4" y2="113"/>
		<line class="st1" x1="106" y1="113" x2="106" y2="107.5"/>
		<line class="st1" x1="101.7" y1="107.5" x2="101.7" y2="113"/>
		<line class="st1" x1="118.3" y1="113" x2="118.3" y2="107.5"/>
		<line class="st1" x1="114.1" y1="107.5" x2="114.1" y2="113"/>
		<line class="st1" x1="136.7" y1="113" x2="136.7" y2="107.5"/>
		<line class="st1" x1="132.4" y1="107.5" x2="132.4" y2="113"/>
		<line class="st1" x1="177.9" y1="113" x2="177.9" y2="107.5"/>
		<path class="st1" d="M173.5,107.5c0,1.7,0,3.4,0,5.1"/>
		<path class="st1" d="M157.7,112.1c0-1.5,0-3.1,0-4.6"/>
		<path class="st1" d="M153.3,107.5c0,1.5,0,2.9,0,4.4"/>
		<path class="st1" d="M193.6,112.6c0-1.7,0-3.4,0-5.1"/>
		<path class="st1" d="M189.2,107.5c0,1.5,0,3.1,0,4.6"/>
		<line class="st1" x1="202" y1="113" x2="202" y2="107.5"/>
		<line class="st1" x1="197.7" y1="107.5" x2="197.7" y2="113"/>
		<line class="st1" x1="202" y1="113" x2="202" y2="107.5"/>
		<line class="st1" x1="197.7" y1="107.5" x2="197.7" y2="113"/>
		<path class="st1" d="M193.6,112.6c0-1.7,0-3.4,0-5.1"/>
		<path class="st1" d="M189.2,107.5c0,1.5,0,3.1,0,4.6"/>
		<line class="st1" x1="177.9" y1="113" x2="177.9" y2="107.5"/>
		<path class="st1" d="M173.5,107.5c0,1.7,0,3.4,0,5.1"/>
		<line class="st1" x1="136.7" y1="113" x2="136.7" y2="107.5"/>
		<line class="st1" x1="132.4" y1="107.5" x2="132.4" y2="113"/>
		<path class="st1" d="M157.7,112.1c0-1.5,0-3.1,0-4.6"/>
		<path class="st1" d="M153.3,107.5c0,1.5,0,2.9,0,4.4"/>
		<line class="st1" x1="226.7" y1="117.7" x2="226.7" y2="107.5"/>
		<line class="st1" x1="224.8" y1="107.5" x2="224.8" y2="117.7"/>
		<line class="st1" x1="75.7" y1="117.7" x2="75.7" y2="107.5"/>
		<line class="st1" x1="73.8" y1="107.5" x2="73.8" y2="117.7"/>
		<line class="st1" x1="71.5" y1="107.4" x2="77.3" y2="107.4"/>
		<line class="st1" x1="77.3" y1="107.4" x2="72.6" y2="107.4"/>
		<line class="st1" x1="229" y1="107.4" x2="223.2" y2="107.4"/>
		<line class="st1" x1="223.2" y1="107.4" x2="228" y2="107.4"/>
		<line class="st1" x1="147.3" y1="107.4" x2="153.2" y2="107.4"/>
		<line class="st1" x1="152.1" y1="107.4" x2="153.2" y2="107.4"/>
		<line class="st1" x1="148.4" y1="107.4" x2="152.1" y2="107.4"/>
		<line class="st1" x1="147.3" y1="107.4" x2="148.4" y2="107.4"/>
		<line class="st1" x1="148.4" y1="107.5" x2="148.4" y2="103"/>
		<line class="st1" x1="147.3" y1="107.5" x2="148.4" y2="107.5"/>
		<line class="st1" x1="147.3" y1="107.5" x2="147.3" y2="103"/>
		<line class="st1" x1="223.2" y1="107.5" x2="223.2" y2="103"/>
		<line class="st1" x1="152.1" y1="107.5" x2="152.1" y2="103"/>
		<line class="st1" x1="153.2" y1="107.5" x2="152.1" y2="107.5"/>
		<line class="st1" x1="153.2" y1="107.5" x2="153.2" y2="103"/>
		<line class="st1" x1="147.3" y1="103" x2="148.4" y2="103"/>
		<line class="st1" x1="77.3" y1="107.5" x2="77.3" y2="103"/>
		<line class="st1" x1="147.3" y1="107.5" x2="71.5" y2="107.5"/>
		<line class="st1" x1="71.5" y1="107.5" x2="71.5" y2="103"/>
		<line class="st1" x1="71.5" y1="103" x2="147.3" y2="103"/>
		<line class="st1" x1="71.5" y1="107.5" x2="147.3" y2="107.5"/>
		<line class="st1" x1="153.2" y1="103" x2="152.1" y2="103"/>
		<line class="st1" x1="229" y1="107.5" x2="153.2" y2="107.5"/>
		<line class="st1" x1="229" y1="103" x2="229" y2="107.5"/>
		<line class="st1" x1="229" y1="103" x2="153.2" y2="103"/>
		<line class="st1" x1="147.3" y1="103" x2="71.5" y2="103"/>
		<line class="st1" x1="151.2" y1="103" x2="149.4" y2="103"/>
		<line class="st1" x1="226.7" y1="103" x2="224.8" y2="103"/>
		<line class="st1" x1="149.4" y1="103" x2="151.2" y2="103"/>
		<line class="st1" x1="114.1" y1="103" x2="118.3" y2="103"/>
		<line class="st1" x1="73.8" y1="103" x2="75.7" y2="103"/>
		<line class="st1" x1="132.4" y1="103" x2="136.7" y2="103"/>
		<line class="st1" x1="202" y1="103" x2="197.7" y2="103"/>
		<line class="st1" x1="202" y1="103" x2="197.7" y2="103"/>
		<line class="st1" x1="193.6" y1="103" x2="189.2" y2="103"/>
		<line class="st1" x1="177.9" y1="103" x2="173.5" y2="103"/>
		<line class="st1" x1="153.5" y1="103" x2="157.7" y2="103"/>
		<line class="st1" x1="132.4" y1="103" x2="136.7" y2="103"/>
		<line class="st1" x1="114.1" y1="103" x2="118.3" y2="103"/>
		<line class="st1" x1="101.7" y1="103" x2="106" y2="103"/>
		<line class="st1" x1="101.7" y1="103" x2="106" y2="103"/>
		<line class="st1" x1="97.4" y1="103" x2="101.6" y2="103"/>
		<line class="st1" x1="77.3" y1="103" x2="71.5" y2="103"/>
		<line class="st1" x1="177.9" y1="103" x2="173.5" y2="103"/>
		<line class="st1" x1="193.4" y1="103" x2="189.2" y2="103"/>
		<line class="st1" x1="72.6" y1="103" x2="77.3" y2="103"/>
		<line class="st1" x1="148.4" y1="103" x2="152.1" y2="103"/>
		<line class="st1" x1="153.2" y1="103" x2="229" y2="103"/>
		<line class="st1" x1="223.2" y1="103" x2="229" y2="103"/>
		<line class="st1" x1="228" y1="103" x2="223.2" y2="103"/>
		<line class="st1" x1="115.3" y1="103" x2="185.3" y2="103"/>
		<line class="st1" x1="151.2" y1="107.5" x2="149.4" y2="107.5"/>
		<line class="st1" x1="226.7" y1="107.5" x2="224.8" y2="107.5"/>
		<line class="st1" x1="149.4" y1="107.5" x2="151.2" y2="107.5"/>
		<line class="st1" x1="73.8" y1="107.5" x2="75.7" y2="107.5"/>
		<line class="st1" x1="114.1" y1="107.5" x2="118.3" y2="107.5"/>
		<line class="st1" x1="132.4" y1="107.5" x2="136.7" y2="107.5"/>
		<line class="st1" x1="157.7" y1="107.5" x2="153.5" y2="107.5"/>
		<line class="st1" x1="177.9" y1="107.5" x2="173.5" y2="107.5"/>
		<line class="st1" x1="193.4" y1="107.5" x2="189.2" y2="107.5"/>
		<line class="st1" x1="202" y1="107.5" x2="197.7" y2="107.5"/>
		<line class="st1" x1="193.6" y1="107.5" x2="189.2" y2="107.5"/>
		<line class="st1" x1="177.9" y1="107.5" x2="173.5" y2="107.5"/>
		<line class="st1" x1="153.5" y1="107.5" x2="157.7" y2="107.5"/>
		<line class="st1" x1="132.4" y1="107.5" x2="136.7" y2="107.5"/>
		<line class="st1" x1="157.7" y1="103" x2="153.5" y2="103"/>
		<line class="st1" x1="114.1" y1="107.5" x2="118.3" y2="107.5"/>
		<line class="st1" x1="101.7" y1="107.5" x2="106" y2="107.5"/>
		<line class="st1" x1="97.4" y1="107.5" x2="101.6" y2="107.5"/>
		<line class="st1" x1="152.1" y1="107.5" x2="148.4" y2="107.5"/>
		<line class="st1" x1="101.7" y1="107.5" x2="106" y2="107.5"/>
		<line class="st1" x1="202" y1="107.5" x2="197.7" y2="107.5"/>
		<line class="st1" x1="228" y1="107.5" x2="223.2" y2="107.5"/>
		<line class="st1" x1="229" y1="107.5" x2="223.2" y2="107.5"/>
		<line class="st1" x1="153.2" y1="107.5" x2="229" y2="107.5"/>
		<line class="st1" x1="71.5" y1="107.5" x2="77.3" y2="107.5"/>
		<line class="st1" x1="72.6" y1="107.5" x2="77.3" y2="107.5"/>
		<line class="st1" x1="115.3" y1="107.5" x2="185.3" y2="107.5"/>
		<line class="st1" x1="72.6" y1="107.5" x2="72.6" y2="103"/>
		<line class="st1" x1="228" y1="107.5" x2="228" y2="103"/>
		<line class="st1" x1="71.3" y1="107.4" x2="229.2" y2="107.4"/>
		<line class="st1" x1="70.1" y1="107.4" x2="230.4" y2="107.4"/>
		<line class="st1" x1="145" y1="0.2" x2="155.5" y2="0.2"/>
		<line class="st1" x1="149.1" y1="4.8" x2="151.4" y2="4.8"/>
		<line class="st1" x1="151.4" y1="13.9" x2="149.1" y2="13.9"/>
		<line class="st1" x1="89.1" y1="59" x2="211.4" y2="59"/>
		<line class="st1" x1="89.1" y1="108.6" x2="211.4" y2="108.6"/>
		<line class="st1" x1="101.7" y1="113" x2="106" y2="113"/>
		<line class="st1" x1="101.7" y1="113" x2="106" y2="113"/>
		<path class="st1" d="M141.2,113c-16.2,0-31.2,0-47.3,0"/>
		<path class="st1" d="M206.7,113c-4.1,0-8.2,0-12.2,0"/>
		<path class="st1" d="M104.6,113"/>
		<path class="st1" d="M195.9,113"/>
		<line class="st1" x1="132.4" y1="113" x2="136.7" y2="113"/>
		<line class="st1" x1="197.7" y1="113" x2="202" y2="113"/>
		<line class="st1" x1="114.1" y1="113" x2="118.3" y2="113"/>
		<line class="st1" x1="97.4" y1="113" x2="101.6" y2="113"/>
		<line class="st1" x1="114.1" y1="113" x2="118.3" y2="113"/>
		<line class="st1" x1="206.7" y1="107.5" x2="93.9" y2="107.5"/>
		<line class="st1" x1="184.4" y1="107.5" x2="116.2" y2="107.5"/>
		<line class="st1" x1="132.4" y1="113" x2="136.7" y2="113"/>
		<line class="st1" x1="197.7" y1="113" x2="202" y2="113"/>
		<line class="st1" x1="150.3" y1="107.5" x2="147.3" y2="107.5"/>
		<line class="st1" x1="153.2" y1="107.5" x2="150.3" y2="107.5"/>
		<path class="st1" d="M150.3,108.7"/>
		<line class="st1" x1="153.2" y1="107.5" x2="147.3" y2="107.5"/>
		<line class="st1" x1="230.2" y1="139.4" x2="230.2" y2="209.3"/>
		<line class="st1" x1="230.2" y1="108.7" x2="230.2" y2="139.4"/>
		<line class="st1" x1="230.2" y1="239.9" x2="230.2" y2="209.3"/>
		<line class="st1" x1="230.2" y1="139.3" x2="230.2" y2="108.7"/>
		<line class="st1" x1="230.2" y1="209.3" x2="230.2" y2="139.3"/>
		<line class="st1" x1="230.2" y1="209.3" x2="230.2" y2="239.9"/>
		<line class="st1" x1="230.2" y1="107.5" x2="230.2" y2="241.1"/>
		<path class="st1" d="M230.2,108.7"/>
		<line class="st1" x1="223" y1="107.5" x2="230.2" y2="107.5"/>
		<line class="st1" x1="223" y1="107.5" x2="223" y2="241.1"/>
		<line class="st1" x1="223" y1="241.1" x2="230.2" y2="241.1"/>
		<polyline class="st1" points="230.2,239.9 230.2,239.9 230.2,239.9 230.2,239.9 230.2,239.9 230.2,239.9 230.2,239.9 		"/>
		<line class="st1" x1="226.7" y1="117.7" x2="224.8" y2="117.7"/>
		<path class="st1" d="M150.3,108.7"/>
		<path class="st1" d="M194.5,115.7"/>
		<path class="st1" d="M116.2,107.5c0,1.6,0,3.2,0,4.8"/>
		<path class="st1" d="M184.4,112.3c0-1.6,0-3.2,0-4.8"/>
		<path class="st1" d="M151.2,111.7c0-1.4,0-2.8,0-4.2"/>
		<path class="st1" d="M149.4,107.5c0,1.4,0,2.8,0,4.2"/>
		<path class="st1" d="M151.2,111.7c0-1.4,0-2.8,0-4.2"/>
		<path class="st1" d="M149.4,107.5c0,1.4,0,2.8,0,4.2"/>
		<path class="st1" d="M147.3,107.5c0,1.4,0,2.7,0,4.1"/>
		<path class="st1" d="M153.1,111.5c0-1.3,0.1-2.7,0.1-4"/>
		<line class="st1" x1="70.3" y1="139.4" x2="70.3" y2="209.3"/>
		<line class="st1" x1="70.3" y1="108.7" x2="70.3" y2="139.4"/>
		<line class="st1" x1="70.3" y1="239.9" x2="70.3" y2="209.3"/>
		<line class="st1" x1="70.3" y1="209.3" x2="70.3" y2="239.9"/>
		<line class="st1" x1="70.3" y1="241.1" x2="70.3" y2="107.5"/>
		<line class="st1" x1="70.3" y1="209.3" x2="70.3" y2="139.3"/>
		<line class="st1" x1="70.3" y1="139.3" x2="70.3" y2="108.7"/>
		<path class="st1" d="M70.3,108.7"/>
		<polyline class="st1" points="70.3,239.9 70.3,239.9 70.3,239.9 70.3,239.9 70.3,239.9 70.3,239.9 70.3,239.9 		"/>
		<line class="st1" x1="77.5" y1="107.5" x2="70.3" y2="107.5"/>
		<line class="st1" x1="77.5" y1="107.5" x2="77.5" y2="241.1"/>
		<line class="st1" x1="77.5" y1="241.1" x2="70.3" y2="241.1"/>
		<line class="st1" x1="73.8" y1="117.7" x2="75.7" y2="117.7"/>
		<line class="st1" x1="72.6" y1="107.5" x2="147.3" y2="107.5"/>
		<line class="st1" x1="72.6" y1="107.5" x2="70.4" y2="107.5"/>
		<line class="st1" x1="72.6" y1="241.1" x2="70.4" y2="241.1"/>
		<line class="st1" x1="70.4" y1="107.5" x2="147.3" y2="107.5"/>
		<path class="st1" d="M72.6,241.1c12.4-0.1,24.4-0.1,36.8,0"/>
		<line class="st1" x1="72.6" y1="107.5" x2="72.6" y2="241.1"/>
		<line class="st1" x1="70.4" y1="107.5" x2="70.4" y2="241.1"/>
		<path class="st1" d="M70.4,241.1c12.6-0.1,26.6-0.1,39.1,0"/>
		<line class="st1" x1="147.3" y1="107.5" x2="72.6" y2="107.5"/>
		<path class="st1" d="M109.4,241.1C97,241,85,241,72.6,241.1"/>
		<path class="st1" d="M147.3,241.1H70.4c27.6,0,55.2,0,82.8,0c24.9,0,49.9,0,74.8,0"/>
		<line class="st1" x1="147.3" y1="107.5" x2="70.4" y2="107.5"/>
		<line class="st1" x1="228" y1="107.5" x2="228" y2="241.1"/>
		<line class="st1" x1="228" y1="107.5" x2="153.2" y2="107.5"/>
		<path class="st1" d="M228,241.1c-16-0.1-31-0.1-46.6,0"/>
		<line class="st1" x1="228" y1="241.1" x2="230.1" y2="241.1"/>
		<path class="st1" d="M230.1,241.1c-16.1-0.1-33.1-0.1-48.8,0"/>
		<line class="st1" x1="230.1" y1="107.5" x2="153.2" y2="107.5"/>
		<line class="st1" x1="228" y1="107.5" x2="230.1" y2="107.5"/>
		<line class="st1" x1="230.1" y1="107.5" x2="230.1" y2="241.1"/>
		<line class="st1" x1="153.2" y1="107.5" x2="228" y2="107.5"/>
		<path class="st1" d="M181.3,241.1c15.7-0.1,32.7-0.1,48.8,0"/>
		<line class="st1" x1="153.2" y1="107.5" x2="230.1" y2="107.5"/>
		<g>
			<path class="st1" d="M230.4,107.4c-0.1-41.5-0.1-82.5,0.1-123.7"/>
			<path class="st1" d="M70.4-17C70,23.9,70,65.9,70.1,107.4"/>
			<path class="st1" d="M229.2,107.4c0.1-41.5,0.1-82.5-0.2-123.7"/>
			<path class="st1" d="M71.9-17C72,23.9,72,65.9,71.3,107.4"/>
			<path class="st1" d="M77-17.3c0.1,41.2,0.1,83.2,0.3,124.7"/>
			<path class="st1" d="M72.2-17.3C73,23.9,71,65.9,72.5,107.4"/>
			<path class="st1" d="M153-17.1c0.2,41,0.2,83,0.2,124.5"/>
			<path class="st1" d="M147.9-17.1c1.2,41-0.8,83-0.6,124.5"/>
			<path class="st1" d="M152.7-17.1c-0.5,41-0.5,83-0.6,124.5"/>
			<path class="st1" d="M148.1-17.1c0,41,0,83,0.3,124.5"/>
			<path class="st1" d="M71.9-17.3C71,23.9,73,65.9,71.5,107.4"/>
			<path class="st1" d="M228.9-16.3c0.4,41.2,0.4,82.2,0.1,123.7"/>
			<path class="st1" d="M227.5-16.3c-0.2,41.2-0.2,82.2,0.5,123.7"/>
			<path class="st1" d="M222.6-16.3c-0.4,41.2,1.6,82.2,0.6,123.7"/>
			<path class="st1" d="M303.4,229.5c-24.3-6.3-48.7-13.3-73.1-20.2"/>
			<path class="st1" d="M302.8,184c-23.8-14.9-48.2-28.9-72.6-44.6"/>
			<path class="st1" d="M230.2,108.7c24.5,16.3,46.8,33.4,70.7,48.7"/>
			<path class="st1" d="M303.5,254.6c-24.5-4.4-48.8-9.4-73.2-14.7"/>
			<path class="st1" d="M230.2,239.9c24.5,4.3,48.8,9.3,73,14.7"/>
			<path class="st1" d="M303.4,229.5c-24.3-6.3-48.7-13.3-73.1-20.2"/>
			<path class="st1" d="M302.7,183.8c-18.7-11.7-36.9-21.7-56.2-33.8c-5.1-4-11.2-7-16.3-10.7"/>
			<path class="st1" d="M300.8,157.4c-23.8-15.3-46.2-33.4-70.6-48.7"/>
			<path class="st1" d="M-8.9,231.2c26.2-7,52.6-14,79.2-21.9"/>
			<path class="st1" d="M-4.4,185.2c25.8-15.1,50.1-30.1,74.8-45.8"/>
			<path class="st1" d="M-10.7,256.1c27-5.9,53.4-10.9,81.1-16.2"/>
			<path class="st1" d="M70.3,108.7C44.7,127,18.3,144.1-7.1,162"/>
			<path class="st1" d="M70.3,239.9c-27.7,5.3-54.1,11.3-81.1,16.2"/>
			<path class="st1" d="M-8.9,231.2c26.2-7,52.6-14,79.2-21.9"/>
			<path class="st1" d="M-7.1,162.1c25.4-18,51.7-35.1,77.4-53.4"/>
			<path class="st1" d="M-4.7,185.3c26-14.2,49.3-31.2,75-46"/>
		</g>
	</g>
</g>
<g>
	<g>
		<line class="st2" x1="194.2" y1="115.5" x2="195.8" y2="112.8"/>
		<line class="st2" x1="104.7" y1="112.8" x2="106.2" y2="115.5"/>
		<line class="st2" x1="195.8" y1="112.8" x2="104.7" y2="112.8"/>
		<path class="st2" d="M106.2,115.5c0.3,0.5,0.5,0.8,0.9,1.1"/>
		<path class="st2" d="M193.5,116.6c0.3-0.3,0.6-0.8,0.9-1.1"/>
		<line class="st2" x1="111.8" y1="121.3" x2="111.8" y2="144.4"/>
		<line class="st2" x1="188.7" y1="144.4" x2="188.7" y2="121.3"/>
		<path class="st2" d="M136.6,212.7c-1.2,3.2-2.3,6.2-3.5,9.4"/>
		<path class="st2" d="M167.5,222.2c-1.1-3.2-2.3-6.2-3.5-9.4"/>
		<path class="st2" d="M136.6,212.7c0-1.5-0.5-3-1.2-4.4"/>
		<path class="st2" d="M165.1,208.3c-0.8,1.4-1.2,2.9-1.2,4.4"/>
		<line class="st2" x1="165.1" y1="208.3" x2="176.7" y2="188.7"/>
		<line class="st2" x1="123.8" y1="188.7" x2="135.4" y2="208.3"/>
		<path class="st2" d="M176.7,188.7c7.8-13.5,12-28.9,12-44.4"/>
		<path class="st2" d="M111.8,144.4c0,15.6,4.2,31,12,44.4"/>
		<line class="st2" x1="122.9" y1="256.2" x2="177.6" y2="256.2"/>
		<path class="st2" d="M121.2,245.9c-2.7,0.9-4.4,3.9-3.3,6.7"/>
		<path class="st2" d="M183,250.9c0-2.3-1.5-4.4-3.6-5"/>
		<line class="st2" x1="126.4" y1="241.8" x2="121.2" y2="245.9"/>
		<line class="st2" x1="179.3" y1="245.9" x2="174.1" y2="241.8"/>
		<line class="st2" x1="188.7" y1="121.3" x2="193.5" y2="116.6"/>
		<line class="st2" x1="107" y1="116.6" x2="111.8" y2="121.3"/>
		<line class="st2" x1="122.9" y1="256.2" x2="177.6" y2="256.2"/>
		<path class="st2" d="M117.8,252.6c0.8,2.1,2.7,3.6,5.1,3.6"/>
		<path class="st2" d="M177.6,256.2c2.9,0,5.4-2.4,5.4-5.3"/>
		<path class="st2" d="M129.5,232.1c-1.1,3.2-2,6.4-3,9.6"/>
		<path class="st2" d="M174.1,241.8c-1.1-3.2-2-6.4-3-9.6"/>
		<path class="st2" d="M133,222.1c-1.2,3.3-2.4,6.7-3.5,10"/>
		<path class="st2" d="M171,232.2c-1.1-3.3-2.3-6.7-3.5-10"/>
	</g>
</g>
</svg>
