<?xml version="1.0" encoding="utf-8"?>
<!-- Generator: Adobe Illustrator 23.1.1, SVG Export Plug-In . SVG Version: 6.00 Build 0)  -->
<svg version="1.1" id="Layer_1" xmlns="http://www.w3.org/2000/svg" xmlns:xlink="http://www.w3.org/1999/xlink" x="0px" y="0px"
	 viewBox="0 0 300 300" style="enable-background:new 0 0 300 300;" xml:space="preserve">
<style type="text/css">
	.st0{fill:#181C25;}
	.st1{fill:none;stroke:#FFFFFF;stroke-width:0.7087;stroke-linecap:round;stroke-linejoin:round;stroke-miterlimit:10;}
	.st2{fill:none;stroke:#8E2DE2;stroke-width:2;stroke-linecap:round;stroke-linejoin:round;stroke-miterlimit:10;}
</style>
<g>
	<g>
		<rect class="st0" width="300" height="300"/>
	</g>
</g>
<g>
	<line class="st1" x1="180" y1="102.5" x2="180" y2="99.5"/>
	<line class="st1" x1="120.4" y1="99.5" x2="120.4" y2="102.5"/>
	<line class="st1" x1="175.1" y1="99.5" x2="175.1" y2="102.5"/>
	<line class="st1" x1="182.5" y1="102.5" x2="182.5" y2="99.5"/>
	<line class="st1" x1="117.9" y1="99.5" x2="117.9" y2="102.5"/>
	<line class="st1" x1="125.3" y1="102.5" x2="125.3" y2="99.5"/>
	<line class="st1" x1="117.9" y1="99.5" x2="117.9" y2="102.5"/>
	<line class="st1" x1="125.3" y1="102.5" x2="125.3" y2="99.5"/>
	<line class="st1" x1="175.1" y1="99.5" x2="175.1" y2="102.5"/>
	<line class="st1" x1="182.5" y1="102.5" x2="182.5" y2="99.5"/>
	<line class="st1" x1="150" y1="99.5" x2="150" y2="102.5"/>
	<line class="st1" x1="150.4" y1="102.5" x2="150.4" y2="99.5"/>
	<line class="st1" x1="185.6" y1="99.5" x2="185.6" y2="102.5"/>
	<line class="st1" x1="186.1" y1="102.5" x2="186.1" y2="99.5"/>
	<line class="st1" x1="114.3" y1="99.5" x2="114.3" y2="102.5"/>
	<line class="st1" x1="114.8" y1="102.5" x2="114.8" y2="99.5"/>
	<line class="st1" x1="150" y1="99.5" x2="150" y2="102.5"/>
	<line class="st1" x1="150.4" y1="102.5" x2="150.4" y2="99.5"/>
	<line class="st1" x1="178.3" y1="99.5" x2="178.3" y2="102.5"/>
	<line class="st1" x1="179.3" y1="102.5" x2="179.3" y2="99.5"/>
	<line class="st1" x1="184.2" y1="99.5" x2="184.2" y2="102.5"/>
	<line class="st1" x1="185.2" y1="102.5" x2="185.2" y2="99.5"/>
	<line class="st1" x1="178.3" y1="99.5" x2="178.3" y2="102.5"/>
	<line class="st1" x1="179.3" y1="102.5" x2="179.3" y2="99.5"/>
	<line class="st1" x1="172.4" y1="99.5" x2="172.4" y2="102.5"/>
	<line class="st1" x1="173.5" y1="102.5" x2="173.5" y2="99.5"/>
	<line class="st1" x1="121.1" y1="99.5" x2="121.1" y2="102.5"/>
	<line class="st1" x1="122.1" y1="102.5" x2="122.1" y2="99.5"/>
	<line class="st1" x1="126.9" y1="99.5" x2="126.9" y2="102.5"/>
	<line class="st1" x1="128" y1="102.5" x2="128" y2="99.5"/>
	<line class="st1" x1="115.2" y1="99.5" x2="115.2" y2="102.5"/>
	<line class="st1" x1="116.2" y1="102.5" x2="116.2" y2="99.5"/>
	<line class="st1" x1="121.1" y1="99.5" x2="121.1" y2="102.5"/>
	<line class="st1" x1="122.1" y1="102.5" x2="122.1" y2="99.5"/>
	<line class="st1" x1="126.9" y1="99.5" x2="126.9" y2="102.5"/>
	<line class="st1" x1="128" y1="102.5" x2="128" y2="99.5"/>
	<line class="st1" x1="121.1" y1="99.5" x2="121.1" y2="102.5"/>
	<line class="st1" x1="122.1" y1="102.5" x2="122.1" y2="99.5"/>
	<line class="st1" x1="172.4" y1="99.5" x2="172.4" y2="102.5"/>
	<line class="st1" x1="173.5" y1="102.5" x2="173.5" y2="99.5"/>
	<line class="st1" x1="178.3" y1="99.5" x2="178.3" y2="102.5"/>
	<line class="st1" x1="179.3" y1="102.5" x2="179.3" y2="99.5"/>
	<line class="st1" x1="115.2" y1="99.5" x2="115.2" y2="102.5"/>
	<line class="st1" x1="116.2" y1="102.5" x2="116.2" y2="99.5"/>
	<line class="st1" x1="121.1" y1="99.5" x2="121.1" y2="102.5"/>
	<line class="st1" x1="122.1" y1="102.5" x2="122.1" y2="99.5"/>
	<line class="st1" x1="184.2" y1="99.5" x2="184.2" y2="102.5"/>
	<line class="st1" x1="185.2" y1="102.5" x2="185.2" y2="99.5"/>
	<line class="st1" x1="118" y1="99.5" x2="118" y2="102.5"/>
	<line class="st1" x1="119.2" y1="102.5" x2="119.2" y2="99.5"/>
	<line class="st1" x1="149.6" y1="99.5" x2="149.6" y2="102.5"/>
	<line class="st1" x1="150.8" y1="102.5" x2="150.8" y2="99.5"/>
	<line class="st1" x1="178.3" y1="99.5" x2="178.3" y2="102.5"/>
	<line class="st1" x1="179.3" y1="102.5" x2="179.3" y2="99.5"/>
	<line class="st1" x1="149.6" y1="99.5" x2="149.6" y2="102.5"/>
	<line class="st1" x1="150.8" y1="102.5" x2="150.8" y2="99.5"/>
	<line class="st1" x1="181.2" y1="99.5" x2="181.2" y2="102.5"/>
	<line class="st1" x1="182.4" y1="102.5" x2="182.4" y2="99.5"/>
	<line class="st1" x1="186.7" y1="221.1" x2="186.7" y2="219.6"/>
	<line class="st1" x1="178.9" y1="219.6" x2="178.9" y2="221.1"/>
	<line class="st1" x1="109.3" y1="219.6" x2="109.3" y2="221.1"/>
	<line class="st1" x1="191.1" y1="221.1" x2="191.1" y2="219.6"/>
	<line class="st1" x1="186.7" y1="221.1" x2="186.7" y2="219.6"/>
	<line class="st1" x1="178.9" y1="219.6" x2="178.9" y2="221.1"/>
	<line class="st1" x1="121.5" y1="221.1" x2="121.5" y2="219.6"/>
	<line class="st1" x1="113.7" y1="219.6" x2="113.7" y2="221.1"/>
	<line class="st1" x1="121.5" y1="221.1" x2="121.5" y2="219.6"/>
	<line class="st1" x1="113.7" y1="219.6" x2="113.7" y2="221.1"/>
	<line class="st1" x1="150.9" y1="216.7" x2="150.9" y2="210.7"/>
	<line class="st1" x1="149.5" y1="210.7" x2="149.5" y2="216.7"/>
	<path class="st1" d="M188.4,298.7c-0.4-13.7-0.4-26.7,0-41.1"/>
	<path class="st1" d="M112,257.6c0,14.4,0,29.4,0,43.2"/>
	<path class="st1" d="M188.4,257.6c0-19.8-15.1-36.3-34.8-38"/>
	<path class="st1" d="M146.8,219.6c-19.7,1.8-34.8,18.3-34.8,38"/>
	<path class="st1" d="M186.5,257.6c0-20.1-16.3-36.3-36.3-36.3s-36.3,16.3-36.3,36.3"/>
	<path class="st1" d="M186.5,298.7c0.5-13.7,0.5-26.7,0-41.1"/>
	<path class="st1" d="M113.9,257.6c0.1,14.4,0.1,29.4,0,43.2"/>
	<path class="st1" d="M146.8,219.6c1.5-0.1,2.7-1.4,2.7-2.9"/>
	<path class="st1" d="M150.9,216.7c0,1.5,1.2,2.8,2.7,2.9"/>
	<line class="st1" x1="150.8" y1="99.5" x2="150.8" y2="97.7"/>
	<line class="st1" x1="149.6" y1="97.7" x2="149.6" y2="99.5"/>
	<line class="st1" x1="116.7" y1="97.7" x2="116.7" y2="99.5"/>
	<line class="st1" x1="183.7" y1="99.5" x2="183.7" y2="97.7"/>
	<line class="st1" x1="119.2" y1="99.5" x2="119.2" y2="97.7"/>
	<line class="st1" x1="118" y1="97.7" x2="118" y2="99.5"/>
	<line class="st1" x1="150.8" y1="99.5" x2="150.8" y2="97.7"/>
	<line class="st1" x1="149.6" y1="97.7" x2="149.6" y2="99.5"/>
	<line class="st1" x1="182.4" y1="99.5" x2="182.4" y2="97.7"/>
	<line class="st1" x1="181.2" y1="97.7" x2="181.2" y2="99.5"/>
	<line class="st1" x1="99.1" y1="99.5" x2="102.9" y2="99.5"/>
	<line class="st1" x1="102.9" y1="99.5" x2="99.8" y2="99.5"/>
	<line class="st1" x1="201.3" y1="99.5" x2="197.5" y2="99.5"/>
	<line class="st1" x1="197.5" y1="99.5" x2="200.6" y2="99.5"/>
	<line class="st1" x1="148.3" y1="99.5" x2="152.1" y2="99.5"/>
	<line class="st1" x1="151.4" y1="99.5" x2="152.1" y2="99.5"/>
	<line class="st1" x1="149" y1="99.5" x2="151.4" y2="99.5"/>
	<line class="st1" x1="148.3" y1="99.5" x2="149" y2="99.5"/>
	<line class="st1" x1="152.1" y1="102.5" x2="201.3" y2="102.5"/>
	<line class="st1" x1="201.3" y1="99.5" x2="201.3" y2="102.5"/>
	<line class="st1" x1="152.1" y1="99.5" x2="201.3" y2="99.5"/>
	<line class="st1" x1="152.1" y1="99.5" x2="152.1" y2="102.5"/>
	<line class="st1" x1="148.3" y1="99.5" x2="148.3" y2="102.5"/>
	<line class="st1" x1="201.3" y1="102.5" x2="152.1" y2="102.5"/>
	<line class="st1" x1="99.1" y1="102.5" x2="99.1" y2="99.5"/>
	<line class="st1" x1="201.3" y1="99.5" x2="152.1" y2="99.5"/>
	<line class="st1" x1="99.1" y1="102.5" x2="148.3" y2="102.5"/>
	<line class="st1" x1="99.1" y1="99.5" x2="148.3" y2="99.5"/>
	<line class="st1" x1="149.6" y1="102.5" x2="150.8" y2="102.5"/>
	<line class="st1" x1="181.2" y1="102.5" x2="182.4" y2="102.5"/>
	<line class="st1" x1="150.8" y1="102.5" x2="149.6" y2="102.5"/>
	<line class="st1" x1="119.2" y1="102.5" x2="118" y2="102.5"/>
	<line class="st1" x1="179.3" y1="102.5" x2="178.3" y2="102.5"/>
	<line class="st1" x1="185.2" y1="102.5" x2="184.2" y2="102.5"/>
	<line class="st1" x1="178.3" y1="102.5" x2="179.3" y2="102.5"/>
	<line class="st1" x1="172.4" y1="102.5" x2="173.5" y2="102.5"/>
	<line class="st1" x1="115.2" y1="102.5" x2="116.2" y2="102.5"/>
	<line class="st1" x1="122.1" y1="102.5" x2="121.1" y2="102.5"/>
	<line class="st1" x1="128" y1="102.5" x2="126.9" y2="102.5"/>
	<line class="st1" x1="121.1" y1="102.5" x2="122.1" y2="102.5"/>
	<line class="st1" x1="121.1" y1="102.5" x2="122.1" y2="102.5"/>
	<line class="st1" x1="115.2" y1="102.5" x2="116.2" y2="102.5"/>
	<line class="st1" x1="122.1" y1="102.5" x2="121.1" y2="102.5"/>
	<line class="st1" x1="128" y1="102.5" x2="126.9" y2="102.5"/>
	<line class="st1" x1="178.3" y1="102.5" x2="179.3" y2="102.5"/>
	<line class="st1" x1="172.4" y1="102.5" x2="173.5" y2="102.5"/>
	<line class="st1" x1="179.3" y1="102.5" x2="178.3" y2="102.5"/>
	<line class="st1" x1="185.2" y1="102.5" x2="184.2" y2="102.5"/>
	<line class="st1" x1="114.3" y1="102.5" x2="114.8" y2="102.5"/>
	<line class="st1" x1="150" y1="102.5" x2="150.4" y2="102.5"/>
	<line class="st1" x1="186.1" y1="102.5" x2="185.6" y2="102.5"/>
	<line class="st1" x1="150.4" y1="102.5" x2="150" y2="102.5"/>
	<line class="st1" x1="117.9" y1="102.5" x2="125.3" y2="102.5"/>
	<line class="st1" x1="197.5" y1="102.5" x2="201.3" y2="102.5"/>
	<line class="st1" x1="182.5" y1="102.5" x2="175.1" y2="102.5"/>
	<line class="st1" x1="148.3" y1="102.5" x2="152.1" y2="102.5"/>
	<line class="st1" x1="117.9" y1="102.5" x2="125.3" y2="102.5"/>
	<line class="st1" x1="102.9" y1="102.5" x2="99.1" y2="102.5"/>
	<line class="st1" x1="182.5" y1="102.5" x2="175.1" y2="102.5"/>
	<line class="st1" x1="148.3" y1="102.5" x2="99.1" y2="102.5"/>
	<line class="st1" x1="149.6" y1="99.5" x2="150.8" y2="99.5"/>
	<line class="st1" x1="181.2" y1="99.5" x2="182.4" y2="99.5"/>
	<line class="st1" x1="150.8" y1="99.5" x2="149.6" y2="99.5"/>
	<line class="st1" x1="119.2" y1="99.5" x2="118" y2="99.5"/>
	<line class="st1" x1="179.3" y1="99.5" x2="178.3" y2="99.5"/>
	<line class="st1" x1="185.2" y1="99.5" x2="184.2" y2="99.5"/>
	<line class="st1" x1="178.3" y1="99.5" x2="179.3" y2="99.5"/>
	<line class="st1" x1="172.4" y1="99.5" x2="173.5" y2="99.5"/>
	<line class="st1" x1="115.2" y1="99.5" x2="116.2" y2="99.5"/>
	<line class="st1" x1="122.1" y1="99.5" x2="121.1" y2="99.5"/>
	<line class="st1" x1="128" y1="99.5" x2="126.9" y2="99.5"/>
	<line class="st1" x1="121.1" y1="99.5" x2="122.1" y2="99.5"/>
	<line class="st1" x1="121.1" y1="99.5" x2="122.1" y2="99.5"/>
	<line class="st1" x1="115.2" y1="99.5" x2="116.2" y2="99.5"/>
	<line class="st1" x1="122.1" y1="99.5" x2="121.1" y2="99.5"/>
	<line class="st1" x1="128" y1="99.5" x2="126.9" y2="99.5"/>
	<line class="st1" x1="178.3" y1="99.5" x2="179.3" y2="99.5"/>
	<line class="st1" x1="172.4" y1="99.5" x2="173.5" y2="99.5"/>
	<line class="st1" x1="179.3" y1="99.5" x2="178.3" y2="99.5"/>
	<line class="st1" x1="185.2" y1="99.5" x2="184.2" y2="99.5"/>
	<line class="st1" x1="114.3" y1="99.5" x2="114.8" y2="99.5"/>
	<line class="st1" x1="150" y1="99.5" x2="150.4" y2="99.5"/>
	<line class="st1" x1="186.1" y1="99.5" x2="185.6" y2="99.5"/>
	<line class="st1" x1="150.4" y1="99.5" x2="150" y2="99.5"/>
	<line class="st1" x1="117.9" y1="99.5" x2="125.3" y2="99.5"/>
	<line class="st1" x1="99.1" y1="99.5" x2="102.9" y2="99.5"/>
	<line class="st1" x1="117.9" y1="99.5" x2="125.3" y2="99.5"/>
	<line class="st1" x1="148.3" y1="99.5" x2="99.1" y2="99.5"/>
	<line class="st1" x1="197.5" y1="99.5" x2="201.3" y2="99.5"/>
	<line class="st1" x1="102.9" y1="99.5" x2="102.9" y2="102.5"/>
	<line class="st1" x1="197.5" y1="99.5" x2="197.5" y2="102.5"/>
	<line class="st1" x1="182.5" y1="99.5" x2="175.1" y2="99.5"/>
	<line class="st1" x1="182.5" y1="99.5" x2="175.1" y2="99.5"/>
	<line class="st1" x1="180" y1="99.5" x2="120.4" y2="99.5"/>
	<line class="st1" x1="152.1" y1="219.6" x2="201.3" y2="219.6"/>
	<line class="st1" x1="201.3" y1="221.1" x2="201.3" y2="219.6"/>
	<line class="st1" x1="201.3" y1="221.1" x2="152.1" y2="221.1"/>
	<line class="st1" x1="152.1" y1="221.1" x2="152.1" y2="219.6"/>
	<line class="st1" x1="99.1" y1="221.1" x2="148.3" y2="221.1"/>
	<line class="st1" x1="148.3" y1="221.1" x2="148.3" y2="219.6"/>
	<line class="st1" x1="99.1" y1="219.6" x2="148.3" y2="219.6"/>
	<line class="st1" x1="99.1" y1="219.6" x2="99.1" y2="221.1"/>
	<line class="st1" x1="113.8" y1="219.6" x2="121.5" y2="219.6"/>
	<line class="st1" x1="186.7" y1="219.6" x2="178.9" y2="219.6"/>
	<line class="st1" x1="113.7" y1="219.6" x2="121.5" y2="219.6"/>
	<line class="st1" x1="186.6" y1="219.6" x2="178.9" y2="219.6"/>
	<line class="st1" x1="197.5" y1="219.6" x2="201.3" y2="219.6"/>
	<line class="st1" x1="201.3" y1="219.6" x2="152.1" y2="219.6"/>
	<line class="st1" x1="152.1" y1="221.1" x2="201.3" y2="221.1"/>
	<line class="st1" x1="102.9" y1="219.6" x2="99.1" y2="219.6"/>
	<line class="st1" x1="148.3" y1="219.6" x2="99.1" y2="219.6"/>
	<line class="st1" x1="152.1" y1="219.6" x2="148.3" y2="219.6"/>
	<line class="st1" x1="191.1" y1="219.6" x2="109.3" y2="219.6"/>
	<line class="st1" x1="113.8" y1="221.1" x2="121.5" y2="221.1"/>
	<line class="st1" x1="152.1" y1="221.1" x2="148.3" y2="221.1"/>
	<line class="st1" x1="186.6" y1="221.1" x2="178.9" y2="221.1"/>
	<line class="st1" x1="102.9" y1="221.1" x2="99.1" y2="221.1"/>
	<line class="st1" x1="186.7" y1="221.1" x2="178.9" y2="221.1"/>
	<line class="st1" x1="148.3" y1="221.1" x2="99.1" y2="221.1"/>
	<line class="st1" x1="197.5" y1="221.1" x2="201.3" y2="221.1"/>
	<line class="st1" x1="113.7" y1="221.1" x2="121.5" y2="221.1"/>
	<line class="st1" x1="191.1" y1="221.1" x2="109.3" y2="221.1"/>
	<line class="st1" x1="102.9" y1="221.1" x2="102.9" y2="219.6"/>
	<line class="st1" x1="197.5" y1="221.1" x2="197.5" y2="219.6"/>
	<line class="st1" x1="98.2" y1="76.1" x2="202.2" y2="76.1"/>
	<line class="st1" x1="99" y1="76.1" x2="201.4" y2="76.1"/>
	<line class="st1" x1="188.4" y1="257.6" x2="112" y2="257.6"/>
	<line class="st1" x1="150.9" y1="210.7" x2="149.5" y2="210.7"/>
	<line class="st1" x1="146.8" y1="219.6" x2="153.6" y2="219.6"/>
	<line class="st1" x1="149.5" y1="216.7" x2="150.9" y2="216.7"/>
	<line class="st1" x1="186.5" y1="257.6" x2="113.9" y2="257.6"/>
	<line class="st1" x1="183.7" y1="99.5" x2="116.7" y2="99.5"/>
	<line class="st1" x1="183.7" y1="97.7" x2="116.7" y2="97.7"/>
	<line class="st1" x1="150.8" y1="97.7" x2="149.6" y2="97.7"/>
	<line class="st1" x1="181.2" y1="97.7" x2="182.4" y2="97.7"/>
	<line class="st1" x1="149.6" y1="97.7" x2="150.8" y2="97.7"/>
	<line class="st1" x1="119.2" y1="97.7" x2="118" y2="97.7"/>
	<line class="st1" x1="99.7" y1="76.1" x2="200.7" y2="76.1"/>
	<line class="st1" x1="99" y1="99.5" x2="201.4" y2="99.5"/>
	<line class="st1" x1="99.7" y1="99.5" x2="200.7" y2="99.5"/>
	<g>
		<path class="st1" d="M102.9,99.5c0.1,65.5,0.1,132.5,0,198.9"/>
		<path class="st1" d="M99.8,99.5c0.2,65.5,0.2,132.5,0,198.9"/>
		<path class="st1" d="M152.1,99.5c-0.1,66.5-0.1,133.5,0,200.2"/>
		<path class="st1" d="M148.3,99.5c-0.3,66.5-0.3,133.5,0,200.2"/>
		<path class="st1" d="M151.4,99.5c-0.4,66.5-0.4,133.5,0,200.2"/>
		<path class="st1" d="M149,99.5c0,66.5,0,133.5,0,200.2"/>
		<path class="st1" d="M99.1,99.5C99,165,99,232,99.1,298.3"/>
		<path class="st1" d="M202.2,297.6C202,224,202,150,202.2,76.1"/>
		<path class="st1" d="M98.2,76.1C98,150,98,224,98.2,298.5"/>
		<path class="st1" d="M201.4,297.6C201,224,201,150,201.4,76.1"/>
		<path class="st1" d="M99,76.1c0,73.9,0,147.9,0,222.4"/>
		<line class="st1" x1="201.4" y1="99.5" x2="201.4" y2="76.1"/>
		<line class="st1" x1="99" y1="76.1" x2="99" y2="99.5"/>
		<line class="st1" x1="200.7" y1="99.5" x2="200.7" y2="76.1"/>
		<line class="st1" x1="99.7" y1="76.1" x2="99.7" y2="99.5"/>
		<path class="st1" d="M112.1,1c-4.3,25-8.4,50-12.4,75.1"/>
		<path class="st1" d="M200.7,76.1C196.6,51,192.6,26,188.3,1"/>
		<path class="st1" d="M110.6,1c-4.3,25-8.4,50.1-12.4,75.1"/>
		<path class="st1" d="M202.2,76.1C198.1,51,194.1,26,189.8,1"/>
		<path class="st1" d="M201.3,99.5c-0.3,65.5-0.3,131.5,0,198"/>
		<path class="st1" d="M200.6,99.5c0.4,65.5,0.4,131.5,0,198"/>
		<path class="st1" d="M197.5,99.5c0.5,65.5,0.5,131.5,0,198"/>
	</g>
	<g>
		<line class="st2" x1="180" y1="102.5" x2="120.4" y2="102.5"/>
		<line class="st2" x1="178.1" y1="97.7" x2="122.3" y2="97.7"/>
		<g>
			<line class="st2" x1="180" y1="181.4" x2="180" y2="99.5"/>
			<line class="st2" x1="120.4" y1="99.5" x2="120.4" y2="181.4"/>
			<line class="st2" x1="178.1" y1="177.7" x2="178.1" y2="97.7"/>
			<line class="st2" x1="122.3" y1="97.7" x2="122.3" y2="177.7"/>
			<line class="st2" x1="120.4" y1="181.4" x2="180" y2="181.4"/>
			<line class="st2" x1="178.1" y1="177.7" x2="122.3" y2="177.7"/>
		</g>
	</g>
</g>
</svg>
