<?xml version="1.0" encoding="utf-8"?>
<!-- Generator: Adobe Illustrator 23.1.1, SVG Export Plug-In . SVG Version: 6.00 Build 0)  -->
<svg version="1.1" id="Layer_1" xmlns="http://www.w3.org/2000/svg" xmlns:xlink="http://www.w3.org/1999/xlink" x="0px" y="0px"
	 viewBox="0 0 300 300" style="enable-background:new 0 0 300 300;" xml:space="preserve">
<style type="text/css">
	.st0{fill:#181C25;}
	.st1{fill:none;stroke:#FFFFFF;stroke-width:0.7087;stroke-linecap:round;stroke-linejoin:round;stroke-miterlimit:10;}
	.st2{fill:none;stroke:#8E2DE2;stroke-width:2;stroke-linecap:round;stroke-linejoin:round;stroke-miterlimit:10;}
	.st3{fill:none;stroke:#FFFFFF;stroke-linecap:round;stroke-linejoin:round;stroke-miterlimit:10;}
	.st4{fill:none;stroke:#FFFFFF;stroke-width:0.75;stroke-linecap:round;stroke-linejoin:round;stroke-miterlimit:10;}
</style>
<g>
	<g>
		<g>
			<rect class="st0" width="300" height="300"/>
		</g>
	</g>
</g>
<g id="Layer_3">
	<line class="st1" x1="127.7" y1="134.8" x2="127.7" y2="137.7"/>
	<line class="st1" x1="171" y1="137.7" x2="171" y2="134.8"/>
	<line class="st1" x1="119.2" y1="137.7" x2="119.2" y2="134.8"/>
	<line class="st1" x1="116.7" y1="134.8" x2="116.7" y2="137.7"/>
	<line class="st1" x1="122" y1="137.7" x2="122" y2="134.8"/>
	<line class="st1" x1="119.3" y1="134.8" x2="119.3" y2="137.7"/>
	<line class="st1" x1="122" y1="137.7" x2="122" y2="134.8"/>
	<line class="st1" x1="119.3" y1="134.8" x2="119.3" y2="137.7"/>
	<line class="st1" x1="129.6" y1="137.7" x2="129.6" y2="134.8"/>
	<line class="st1" x1="127" y1="134.8" x2="127" y2="137.7"/>
	<line class="st1" x1="153.9" y1="137.7" x2="153.9" y2="134.8"/>
	<line class="st1" x1="151.3" y1="134.8" x2="151.3" y2="137.7"/>
	<line class="st1" x1="141" y1="137.7" x2="141" y2="134.8"/>
	<line class="st1" x1="138.3" y1="134.8" x2="138.3" y2="137.7"/>
	<line class="st1" x1="166.4" y1="137.7" x2="166.4" y2="134.8"/>
	<line class="st1" x1="163.8" y1="134.8" x2="163.8" y2="137.7"/>
	<line class="st1" x1="176.2" y1="137.7" x2="176.2" y2="134.8"/>
	<line class="st1" x1="173.5" y1="134.8" x2="173.5" y2="137.7"/>
	<line class="st1" x1="181.4" y1="137.7" x2="181.4" y2="134.8"/>
	<line class="st1" x1="178.7" y1="134.8" x2="178.7" y2="137.7"/>
	<line class="st1" x1="181.4" y1="137.7" x2="181.4" y2="134.8"/>
	<line class="st1" x1="178.7" y1="134.8" x2="178.7" y2="137.7"/>
	<line class="st1" x1="153.9" y1="137.7" x2="153.9" y2="134.8"/>
	<line class="st1" x1="151.3" y1="134.8" x2="151.3" y2="137.7"/>
	<line class="st1" x1="176.2" y1="137.7" x2="176.2" y2="134.8"/>
	<line class="st1" x1="173.5" y1="134.8" x2="173.5" y2="137.7"/>
	<line class="st1" x1="141" y1="137.7" x2="141" y2="134.8"/>
	<line class="st1" x1="138.3" y1="134.8" x2="138.3" y2="137.7"/>
	<line class="st1" x1="166.4" y1="137.7" x2="166.4" y2="134.8"/>
	<line class="st1" x1="163.8" y1="134.8" x2="163.8" y2="137.7"/>
	<line class="st1" x1="129.6" y1="137.7" x2="129.6" y2="134.8"/>
	<line class="st1" x1="127" y1="134.8" x2="127" y2="137.7"/>
	<line class="st1" x1="103.2" y1="137.7" x2="103.2" y2="134.8"/>
	<line class="st1" x1="102.1" y1="134.8" x2="102.1" y2="137.7"/>
	<line class="st1" x1="149.9" y1="137.7" x2="149.9" y2="134.8"/>
	<line class="st1" x1="148.8" y1="134.8" x2="148.8" y2="137.7"/>
	<line class="st1" x1="196.6" y1="137.7" x2="196.6" y2="134.8"/>
	<line class="st1" x1="195.5" y1="134.8" x2="195.5" y2="137.7"/>
	<line class="st1" x1="149.9" y1="137.7" x2="149.9" y2="134.8"/>
	<line class="st1" x1="148.8" y1="134.8" x2="148.8" y2="137.7"/>
	<line class="st1" x1="148.7" y1="73.3" x2="148.7" y2="79"/>
	<line class="st1" x1="150" y1="79" x2="150" y2="73.3"/>
	<path class="st1" d="M110.4-11.9C110,3,110,17,110.4,31.7"/>
	<path class="st1" d="M188.4,31.7C188,16,188,0,188.4-15.7"/>
	<path class="st1" d="M110.4,31.7c0,20.3,15.5,37.2,35.8,38.9"/>
	<path class="st1" d="M152.6,70.5c20.2-1.7,35.8-18.6,35.8-38.9"/>
	<path class="st1" d="M112.1,31.7c0,20.6,16.7,37.3,37.3,37.3s37.3-16.7,37.3-37.3"/>
	<path class="st1" d="M112.1-11.9C112,3,112,17,112.1,31.7"/>
	<path class="st1" d="M186.6,31.7C187,17,187,1,186.6-14.4"/>
	<path class="st1" d="M152.6,70.5c-1.4,0.1-2.6,1.3-2.6,2.8"/>
	<path class="st1" d="M148.7,73.3c0-1.4-1.1-2.7-2.6-2.8"/>
	<line class="st1" x1="187.2" y1="138.3" x2="187.2" y2="107.3"/>
	<line class="st1" x1="111.5" y1="107.3" x2="111.5" y2="138.3"/>
	<line class="st1" x1="184.3" y1="141.1" x2="184.3" y2="137.7"/>
	<line class="st1" x1="114.5" y1="137.7" x2="114.5" y2="141.1"/>
	<line class="st1" x1="173.8" y1="138.9" x2="125" y2="138.9"/>
	<line class="st1" x1="173.8" y1="138.9" x2="125" y2="138.9"/>
	<path class="st1" d="M127.2,140.7c-0.3-1-1.1-1.8-2.2-1.8"/>
	<path class="st1" d="M175.9,141.2c-0.1-1.2-1-2.1-2.1-2.2"/>
	<line class="st1" x1="129.6" y1="141.1" x2="129.6" y2="137.7"/>
	<line class="st1" x1="127" y1="137.7" x2="127" y2="141.1"/>
	<line class="st1" x1="122" y1="141.1" x2="122" y2="137.7"/>
	<line class="st1" x1="119.3" y1="137.7" x2="119.3" y2="141.1"/>
	<line class="st1" x1="119.2" y1="141.1" x2="119.2" y2="137.7"/>
	<line class="st1" x1="116.7" y1="137.7" x2="116.7" y2="141.1"/>
	<line class="st1" x1="122" y1="141.1" x2="122" y2="137.7"/>
	<line class="st1" x1="119.3" y1="137.7" x2="119.3" y2="141.1"/>
	<line class="st1" x1="129.6" y1="141.1" x2="129.6" y2="137.7"/>
	<line class="st1" x1="127" y1="137.7" x2="127" y2="141.1"/>
	<line class="st1" x1="141" y1="141.1" x2="141" y2="137.7"/>
	<line class="st1" x1="138.3" y1="137.7" x2="138.3" y2="141.1"/>
	<line class="st1" x1="166.4" y1="141.1" x2="166.4" y2="137.7"/>
	<line class="st1" x1="163.8" y1="137.7" x2="163.8" y2="141.1"/>
	<line class="st1" x1="153.9" y1="141.1" x2="153.9" y2="137.7"/>
	<line class="st1" x1="151.3" y1="137.7" x2="151.3" y2="141.1"/>
	<line class="st1" x1="176.2" y1="141.1" x2="176.2" y2="137.7"/>
	<line class="st1" x1="173.5" y1="137.7" x2="173.5" y2="141.1"/>
	<line class="st1" x1="181.4" y1="141.1" x2="181.4" y2="137.7"/>
	<line class="st1" x1="178.7" y1="137.7" x2="178.7" y2="141.1"/>
	<line class="st1" x1="181.4" y1="141.1" x2="181.4" y2="137.7"/>
	<line class="st1" x1="178.7" y1="137.7" x2="178.7" y2="141.1"/>
	<line class="st1" x1="176.2" y1="141.1" x2="176.2" y2="137.7"/>
	<line class="st1" x1="173.5" y1="137.7" x2="173.5" y2="141.1"/>
	<line class="st1" x1="166.4" y1="141.1" x2="166.4" y2="137.7"/>
	<line class="st1" x1="163.8" y1="137.7" x2="163.8" y2="141.1"/>
	<line class="st1" x1="141" y1="141.1" x2="141" y2="137.7"/>
	<line class="st1" x1="138.3" y1="137.7" x2="138.3" y2="141.1"/>
	<line class="st1" x1="153.9" y1="141.1" x2="153.9" y2="137.7"/>
	<line class="st1" x1="151.3" y1="137.7" x2="151.3" y2="141.1"/>
	<path class="st1" d="M149.9,142.5c0-1.6,0-3.2,0-4.8"/>
	<path class="st1" d="M148.8,137.7c0,1.6,0,3.2,0,4.8"/>
	<line class="st1" x1="196.6" y1="144.1" x2="196.6" y2="137.7"/>
	<line class="st1" x1="195.5" y1="137.7" x2="195.5" y2="144.1"/>
	<path class="st1" d="M149.9,142.5c0-1.6,0-3.2,0-4.8"/>
	<path class="st1" d="M148.8,137.7c0,1.6,0,3.2,0,4.8"/>
	<line class="st1" x1="103.2" y1="144.1" x2="103.2" y2="137.7"/>
	<line class="st1" x1="102.1" y1="137.7" x2="102.1" y2="144.1"/>
	<line class="st1" x1="100.6" y1="137.6" x2="104.3" y2="137.6"/>
	<line class="st1" x1="104.3" y1="137.6" x2="101.3" y2="137.6"/>
	<line class="st1" x1="198.1" y1="137.6" x2="194.5" y2="137.6"/>
	<line class="st1" x1="194.5" y1="137.6" x2="197.4" y2="137.6"/>
	<line class="st1" x1="147.5" y1="137.6" x2="151.2" y2="137.6"/>
	<line class="st1" x1="150.5" y1="137.6" x2="151.2" y2="137.6"/>
	<line class="st1" x1="148.2" y1="137.6" x2="150.5" y2="137.6"/>
	<line class="st1" x1="147.5" y1="137.6" x2="148.2" y2="137.6"/>
	<line class="st1" x1="148.2" y1="137.7" x2="148.2" y2="134.8"/>
	<line class="st1" x1="147.5" y1="137.7" x2="148.2" y2="137.7"/>
	<line class="st1" x1="147.5" y1="137.7" x2="147.5" y2="134.8"/>
	<line class="st1" x1="194.5" y1="137.7" x2="194.5" y2="134.8"/>
	<line class="st1" x1="150.5" y1="137.7" x2="150.5" y2="134.8"/>
	<line class="st1" x1="151.2" y1="137.7" x2="150.5" y2="137.7"/>
	<line class="st1" x1="151.2" y1="137.7" x2="151.2" y2="134.8"/>
	<line class="st1" x1="147.5" y1="134.8" x2="148.2" y2="134.8"/>
	<line class="st1" x1="104.3" y1="137.7" x2="104.3" y2="134.8"/>
	<line class="st1" x1="147.5" y1="137.7" x2="100.6" y2="137.7"/>
	<line class="st1" x1="100.6" y1="137.7" x2="100.6" y2="134.8"/>
	<line class="st1" x1="100.6" y1="134.8" x2="147.5" y2="134.8"/>
	<line class="st1" x1="100.6" y1="137.7" x2="147.5" y2="137.7"/>
	<line class="st1" x1="151.2" y1="134.8" x2="150.5" y2="134.8"/>
	<line class="st1" x1="198.1" y1="137.7" x2="151.2" y2="137.7"/>
	<line class="st1" x1="198.1" y1="134.8" x2="198.1" y2="137.7"/>
	<line class="st1" x1="198.1" y1="134.8" x2="151.2" y2="134.8"/>
	<line class="st1" x1="147.5" y1="134.8" x2="100.6" y2="134.8"/>
	<line class="st1" x1="149.9" y1="134.8" x2="148.8" y2="134.8"/>
	<line class="st1" x1="196.6" y1="134.8" x2="195.5" y2="134.8"/>
	<line class="st1" x1="148.8" y1="134.8" x2="149.9" y2="134.8"/>
	<line class="st1" x1="127" y1="134.8" x2="129.6" y2="134.8"/>
	<line class="st1" x1="102.1" y1="134.8" x2="103.2" y2="134.8"/>
	<line class="st1" x1="138.3" y1="134.8" x2="141" y2="134.8"/>
	<line class="st1" x1="181.4" y1="134.8" x2="178.7" y2="134.8"/>
	<line class="st1" x1="181.4" y1="134.8" x2="178.7" y2="134.8"/>
	<line class="st1" x1="176.2" y1="134.8" x2="173.5" y2="134.8"/>
	<line class="st1" x1="166.4" y1="134.8" x2="163.8" y2="134.8"/>
	<line class="st1" x1="151.4" y1="134.8" x2="153.9" y2="134.8"/>
	<line class="st1" x1="138.3" y1="134.8" x2="141" y2="134.8"/>
	<line class="st1" x1="127" y1="134.8" x2="129.6" y2="134.8"/>
	<line class="st1" x1="119.3" y1="134.8" x2="122" y2="134.8"/>
	<line class="st1" x1="119.3" y1="134.8" x2="122" y2="134.8"/>
	<line class="st1" x1="116.7" y1="134.8" x2="119.2" y2="134.8"/>
	<line class="st1" x1="104.3" y1="134.8" x2="100.6" y2="134.8"/>
	<line class="st1" x1="166.4" y1="134.8" x2="163.8" y2="134.8"/>
	<line class="st1" x1="176.1" y1="134.8" x2="173.5" y2="134.8"/>
	<line class="st1" x1="101.3" y1="134.8" x2="104.3" y2="134.8"/>
	<line class="st1" x1="148.2" y1="134.8" x2="150.5" y2="134.8"/>
	<line class="st1" x1="151.2" y1="134.8" x2="198.1" y2="134.8"/>
	<line class="st1" x1="194.5" y1="134.8" x2="198.1" y2="134.8"/>
	<line class="st1" x1="197.4" y1="134.8" x2="194.5" y2="134.8"/>
	<line class="st1" x1="127.7" y1="134.8" x2="171" y2="134.8"/>
	<line class="st1" x1="149.9" y1="137.7" x2="148.8" y2="137.7"/>
	<line class="st1" x1="196.6" y1="137.7" x2="195.5" y2="137.7"/>
	<line class="st1" x1="148.8" y1="137.7" x2="149.9" y2="137.7"/>
	<line class="st1" x1="102.1" y1="137.7" x2="103.2" y2="137.7"/>
	<line class="st1" x1="127" y1="137.7" x2="129.6" y2="137.7"/>
	<line class="st1" x1="138.3" y1="137.7" x2="141" y2="137.7"/>
	<line class="st1" x1="153.9" y1="137.7" x2="151.4" y2="137.7"/>
	<line class="st1" x1="166.4" y1="137.7" x2="163.8" y2="137.7"/>
	<line class="st1" x1="176.1" y1="137.7" x2="173.5" y2="137.7"/>
	<line class="st1" x1="181.4" y1="137.7" x2="178.7" y2="137.7"/>
	<line class="st1" x1="176.2" y1="137.7" x2="173.5" y2="137.7"/>
	<line class="st1" x1="166.4" y1="137.7" x2="163.8" y2="137.7"/>
	<line class="st1" x1="151.4" y1="137.7" x2="153.9" y2="137.7"/>
	<line class="st1" x1="138.3" y1="137.7" x2="141" y2="137.7"/>
	<line class="st1" x1="153.9" y1="134.8" x2="151.4" y2="134.8"/>
	<line class="st1" x1="127" y1="137.7" x2="129.6" y2="137.7"/>
	<line class="st1" x1="119.3" y1="137.7" x2="122" y2="137.7"/>
	<line class="st1" x1="116.7" y1="137.7" x2="119.2" y2="137.7"/>
	<line class="st1" x1="150.5" y1="137.7" x2="148.2" y2="137.7"/>
	<line class="st1" x1="119.3" y1="137.7" x2="122" y2="137.7"/>
	<line class="st1" x1="181.4" y1="137.7" x2="178.7" y2="137.7"/>
	<line class="st1" x1="197.4" y1="137.7" x2="194.5" y2="137.7"/>
	<line class="st1" x1="198.1" y1="137.7" x2="194.5" y2="137.7"/>
	<line class="st1" x1="151.2" y1="137.7" x2="198.1" y2="137.7"/>
	<line class="st1" x1="100.6" y1="137.7" x2="104.3" y2="137.7"/>
	<line class="st1" x1="101.3" y1="137.7" x2="104.3" y2="137.7"/>
	<line class="st1" x1="127.7" y1="137.7" x2="171" y2="137.7"/>
	<line class="st1" x1="101.3" y1="137.7" x2="101.3" y2="134.8"/>
	<line class="st1" x1="197.4" y1="137.7" x2="197.4" y2="134.8"/>
	<line class="st1" x1="100.5" y1="137.6" x2="198.2" y2="137.6"/>
	<line class="st1" x1="99.8" y1="137.6" x2="198.9" y2="137.6"/>
	<line class="st1" x1="188.4" y1="31.7" x2="110.4" y2="31.7"/>
	<line class="st1" x1="146.1" y1="70.5" x2="152.6" y2="70.5"/>
	<line class="st1" x1="148.7" y1="73.3" x2="150" y2="73.3"/>
	<line class="st1" x1="150" y1="79" x2="148.7" y2="79"/>
	<line class="st1" x1="186.6" y1="31.7" x2="112.1" y2="31.7"/>
	<line class="st1" x1="111.5" y1="107.3" x2="187.2" y2="107.3"/>
	<line class="st1" x1="111.5" y1="138.3" x2="187.2" y2="138.3"/>
	<line class="st1" x1="151.4" y1="141.1" x2="153.9" y2="141.1"/>
	<line class="st1" x1="173.5" y1="141.1" x2="176.1" y2="141.1"/>
	<line class="st1" x1="119.3" y1="141.1" x2="122" y2="141.1"/>
	<line class="st1" x1="119.3" y1="141.1" x2="122" y2="141.1"/>
	<line class="st1" x1="184.3" y1="141.1" x2="114.5" y2="141.1"/>
	<line class="st1" x1="177.6" y1="141.1" x2="121.1" y2="141.1"/>
	<line class="st1" x1="138.3" y1="141.1" x2="141" y2="141.1"/>
	<line class="st1" x1="172.2" y1="141.1" x2="169.1" y2="141.1"/>
	<line class="st1" x1="163.8" y1="141.1" x2="166.4" y2="141.1"/>
	<line class="st1" x1="171.1" y1="141.1" x2="172.6" y2="141.1"/>
	<line class="st1" x1="178.7" y1="141.1" x2="181.4" y2="141.1"/>
	<line class="st1" x1="169.1" y1="141.1" x2="165" y2="141.1"/>
	<line class="st1" x1="127" y1="141.1" x2="129.6" y2="141.1"/>
	<line class="st1" x1="116.7" y1="141.1" x2="119.2" y2="141.1"/>
	<line class="st1" x1="127" y1="141.1" x2="129.6" y2="141.1"/>
	<line class="st1" x1="151.4" y1="141.1" x2="153.9" y2="141.1"/>
	<line class="st1" x1="173.5" y1="141.1" x2="176.1" y2="141.1"/>
	<line class="st1" x1="184.3" y1="137.7" x2="114.5" y2="137.7"/>
	<line class="st1" x1="170.4" y1="137.7" x2="128.3" y2="137.7"/>
	<line class="st1" x1="163.8" y1="141.1" x2="166.4" y2="141.1"/>
	<line class="st1" x1="138.3" y1="141.1" x2="141" y2="141.1"/>
	<line class="st1" x1="178.7" y1="141.1" x2="181.4" y2="141.1"/>
	<path class="st1" d="M149.4,138.4c0,1.3-0.1,2.6-0.1,3.9"/>
	<path class="st1" d="M149.4,138.4c0,1.3,0,2.7,0,4"/>
	<path class="st1" d="M149.6,142.3c-0.1-1.3-0.1-2.6-0.2-3.9"/>
	<path class="st1" d="M149.5,142.3c0-1.3,0-2.6-0.1-3.9"/>
	<line class="st1" x1="149.4" y1="137.7" x2="147.5" y2="137.7"/>
	<path class="st1" d="M147.5,137.7c0,1.6,0,3.2,0,4.8"/>
	<line class="st1" x1="151.2" y1="137.7" x2="149.4" y2="137.7"/>
	<path class="st1" d="M151.2,142.5c0-1.6,0-3.2,0-4.8"/>
	<path class="st1" d="M149.4,138.4"/>
	<line class="st1" x1="151.2" y1="137.7" x2="147.5" y2="137.7"/>
	<line class="st1" x1="198.8" y1="157.7" x2="198.8" y2="201.5"/>
	<line class="st1" x1="198.8" y1="138.4" x2="198.8" y2="157.7"/>
	<line class="st1" x1="198.8" y1="220.6" x2="198.8" y2="201.5"/>
	<line class="st1" x1="198.8" y1="157.6" x2="198.8" y2="138.4"/>
	<line class="st1" x1="198.8" y1="201.5" x2="198.8" y2="157.6"/>
	<line class="st1" x1="198.8" y1="201.5" x2="198.8" y2="220.6"/>
	<line class="st1" x1="198.8" y1="137.7" x2="198.8" y2="221.4"/>
	<path class="st1" d="M198.8,138.4"/>
	<line class="st1" x1="194.4" y1="137.7" x2="198.8" y2="137.7"/>
	<line class="st1" x1="194.4" y1="137.7" x2="194.4" y2="221.4"/>
	<line class="st1" x1="194.4" y1="221.4" x2="198.8" y2="221.4"/>
	<polyline class="st1" points="198.8,220.6 198.8,220.6 198.8,220.6 198.8,220.6 198.8,220.6 198.8,220.6 198.8,220.6 	"/>
	<line class="st1" x1="196.6" y1="144.1" x2="195.5" y2="144.1"/>
	<path class="st1" d="M149.4,138.4c0,1.3,0.1,2.6,0.1,3.9"/>
	<path class="st1" d="M149.4,138.4c0,1.3,0,2.7,0,4"/>
	<path class="st1" d="M149.3,142.3c0-1.3,0-2.6,0.1-3.9"/>
	<path class="st1" d="M149.2,142.3c0.1-1.3,0.1-2.6,0.2-3.9"/>
	<path class="st1" d="M149.4,138.4"/>
	<line class="st1" x1="99.9" y1="157.7" x2="99.9" y2="201.5"/>
	<line class="st1" x1="99.9" y1="138.4" x2="99.9" y2="157.7"/>
	<line class="st1" x1="99.9" y1="220.6" x2="99.9" y2="201.5"/>
	<line class="st1" x1="99.9" y1="201.5" x2="99.9" y2="220.6"/>
	<line class="st1" x1="99.9" y1="221.4" x2="99.9" y2="137.7"/>
	<line class="st1" x1="99.9" y1="201.5" x2="99.9" y2="157.6"/>
	<line class="st1" x1="99.9" y1="157.6" x2="99.9" y2="138.4"/>
	<path class="st1" d="M99.9,138.4"/>
	<polyline class="st1" points="99.9,220.6 99.9,220.6 99.9,220.6 99.9,220.6 99.9,220.6 99.9,220.6 99.9,220.6 	"/>
	<line class="st1" x1="104.4" y1="137.7" x2="99.9" y2="137.7"/>
	<line class="st1" x1="104.4" y1="137.7" x2="104.4" y2="221.4"/>
	<line class="st1" x1="104.4" y1="221.4" x2="99.9" y2="221.4"/>
	<line class="st1" x1="102.1" y1="144.1" x2="103.2" y2="144.1"/>
	<line class="st1" x1="101.3" y1="137.7" x2="147.5" y2="137.7"/>
	<line class="st1" x1="101.3" y1="137.7" x2="100" y2="137.7"/>
	<line class="st1" x1="101.3" y1="221.4" x2="100" y2="221.4"/>
	<line class="st1" x1="100" y1="137.7" x2="147.5" y2="137.7"/>
	<line class="st1" x1="101.3" y1="137.7" x2="101.3" y2="221.4"/>
	<path class="st1" d="M100,221.4c1.4,0,2.8,0,4.2,0"/>
	<line class="st1" x1="147.5" y1="137.7" x2="101.3" y2="137.7"/>
	<line class="st1" x1="147.5" y1="221.4" x2="100" y2="221.4"/>
	<line class="st1" x1="147.5" y1="137.7" x2="100" y2="137.7"/>
	<line class="st1" x1="197.4" y1="137.7" x2="197.4" y2="221.4"/>
	<line class="st1" x1="197.4" y1="137.7" x2="151.2" y2="137.7"/>
	<line class="st1" x1="197.4" y1="221.4" x2="198.7" y2="221.4"/>
	<path class="st1" d="M198.7,221.4c-1.4,0-2.8,0-4.2,0"/>
	<line class="st1" x1="198.7" y1="137.7" x2="151.2" y2="137.7"/>
	<line class="st1" x1="197.4" y1="137.7" x2="198.7" y2="137.7"/>
	<line class="st1" x1="151.2" y1="137.7" x2="197.4" y2="137.7"/>
	<path class="st1" d="M194.5,221.4c1.4,0,2.8,0,4.2,0"/>
	<line class="st1" x1="151.2" y1="221.4" x2="197.4" y2="221.4"/>
	<line class="st1" x1="151.2" y1="137.7" x2="198.7" y2="137.7"/>
	<g>
		<path class="st1" d="M198.9,137.6C199,87,199,35,198.9-15.8"/>
		<path class="st1" d="M99.8-12.1C100,38,100,88,99.8,137.6"/>
		<path class="st1" d="M198.2,137.6C198,87,198,35,198.2-15.8"/>
		<path class="st1" d="M100.5-12.1C101,38,101,88,100.5,137.6"/>
		<path class="st1" d="M104.3-11.9C104,38,104,88,104.3,137.6"/>
		<path class="st1" d="M101.3-11.9C101,38,101,88,101.3,137.6"/>
		<path class="st1" d="M151.2-13.2C151,37,151,88,151.2,137.6"/>
		<path class="st1" d="M147.5-13.2C148,37,148,88,147.5,137.6"/>
		<path class="st1" d="M150.5-13.2C151,37,151,88,150.5,137.6"/>
		<path class="st1" d="M148.2-13.2C148,37,148,88,148.2,137.6"/>
		<path class="st1" d="M100.6-11.9c0.4,49.9,0.4,99.9,0,149.5"/>
		<path class="st1" d="M198.1-15.7C198,35,198,87,198.1,137.6"/>
		<path class="st1" d="M197.4-15.7C197,35,197,87,197.4,137.6"/>
		<path class="st1" d="M194.5-15.7C194,35,194,87,194.5,137.6"/>
		<line class="st1" x1="282.6" y1="237.7" x2="282.6" y2="224.9"/>
		<polyline class="st1" points="282.6,237.7 282.6,237.7 282.6,237.7 282.6,237.7 282.6,237.7 282.6,237.7 282.6,237.7 		"/>
		<line class="st1" x1="282.6" y1="209.7" x2="282.6" y2="224.9"/>
		<line class="st1" x1="282.6" y1="196.9" x2="282.6" y2="209.7"/>
		<path class="st1" d="M282.6,196.9L282.6,196.9L282.6,196.9L282.6,196.9L282.6,196.9L282.6,196.9L282.6,196.9"/>
		<line class="st1" x1="282.6" y1="224.9" x2="198.8" y2="201.5"/>
		<line class="st1" x1="282.6" y1="209.7" x2="198.8" y2="157.7"/>
		<polyline class="st1" points="198.8,138.4 231.6,161.3 257.1,179.1 273.2,190.3 282.6,196.9 		"/>
		<polyline class="st1" points="282.6,237.7 243.4,229.7 221.1,225.2 201.6,221.2 198.8,220.6 		"/>
		<line class="st1" x1="16.2" y1="237.7" x2="16.2" y2="224.9"/>
		<line class="st1" x1="16.2" y1="196.9" x2="16.2" y2="209.7"/>
		<path class="st1" d="M16.2,196.9L16.2,196.9L16.2,196.9L16.2,196.9L16.2,196.9L16.2,196.9L16.2,196.9"/>
		<polyline class="st1" points="16.2,237.7 16.2,237.7 16.2,237.7 16.2,237.7 16.2,237.7 16.2,237.7 16.2,237.7 		"/>
		<line class="st1" x1="16.2" y1="224.9" x2="99.9" y2="201.5"/>
		<line class="st1" x1="16.2" y1="209.7" x2="99.9" y2="157.7"/>
		<line class="st1" x1="16.2" y1="209.7" x2="16.2" y2="224.9"/>
		<polyline class="st1" points="16.2,237.7 55.4,229.7 77.7,225.2 97.1,221.2 99.9,220.6 		"/>
		<polyline class="st1" points="99.9,138.4 67.1,161.3 41.6,179.1 25.5,190.3 16.2,196.9 		"/>
	</g>
	<g>
		<line class="st2" x1="282.6" y1="224.9" x2="282.6" y2="237.7"/>
		<line class="st2" x1="282.6" y1="209.7" x2="282.6" y2="196.9"/>
		<line class="st2" x1="282.6" y1="224.9" x2="282.6" y2="209.7"/>
		<polyline class="st2" points="198.8,220.6 238,228.6 260.3,233.1 280.1,237.1 282.6,237.7 		"/>
		<line class="st2" x1="282.6" y1="224.9" x2="198.8" y2="201.5"/>
		<line class="st2" x1="282.6" y1="209.7" x2="198.8" y2="157.6"/>
		<polyline class="st2" points="282.6,196.9 249.8,174 224.3,156.2 207.5,144.5 198.8,138.4 		"/>
		<line class="st2" x1="16.2" y1="224.9" x2="16.2" y2="237.7"/>
		<line class="st2" x1="16.2" y1="224.9" x2="16.2" y2="209.7"/>
		<line class="st2" x1="16.2" y1="209.7" x2="16.2" y2="196.9"/>
		<polyline class="st2" points="99.9,220.6 60.7,228.6 38.4,233.1 18.6,237.1 16.2,237.7 		"/>
		<line class="st2" x1="16.2" y1="224.9" x2="99.9" y2="201.5"/>
		<polyline class="st2" points="16.2,196.9 49,174 74.4,156.2 91.2,144.5 99.9,138.4 		"/>
		<line class="st2" x1="16.2" y1="209.7" x2="99.9" y2="157.6"/>
		<line class="st2" x1="100" y1="137.7" x2="100" y2="221.4"/>
		<line class="st2" x1="198.7" y1="137.7" x2="198.7" y2="221.4"/>
	</g>
</g>
<g>
	<g>
		<line class="st3" x1="176.6" y1="143.6" x2="177.6" y2="141.9"/>
		<line class="st3" x1="121.1" y1="141.9" x2="122" y2="143.6"/>
		<line class="st3" x1="177.6" y1="141.9" x2="121.1" y2="141.9"/>
		<path class="st3" d="M122,143.6c0.2,0.3,0.3,0.5,0.6,0.7"/>
		<path class="st3" d="M176.1,144.3c0.2-0.2,0.4-0.5,0.6-0.7"/>
		<line class="st3" x1="125.5" y1="147.2" x2="125.5" y2="161.5"/>
		<line class="st3" x1="173.2" y1="161.5" x2="173.2" y2="147.2"/>
		<path class="st3" d="M140.9,203.8c-0.7,2-1.4,3.8-2.2,5.8"/>
		<path class="st3" d="M160,209.7c-0.7-2-1.4-3.8-2.2-5.8"/>
		<path class="st3" d="M140.9,203.8c0-0.9-0.3-1.9-0.7-2.7"/>
		<path class="st3" d="M158.5,201.1c-0.5,0.9-0.7,1.8-0.7,2.7"/>
		<line class="st3" x1="158.5" y1="201.1" x2="165.7" y2="189"/>
		<line class="st3" x1="132.9" y1="189" x2="140.1" y2="201.1"/>
		<path class="st3" d="M165.7,189c4.8-8.4,7.4-17.9,7.4-27.5"/>
		<path class="st3" d="M125.5,161.5c0,9.7,2.6,19.2,7.4,27.5"/>
		<line class="st3" x1="132.4" y1="230.8" x2="166.3" y2="230.8"/>
		<path class="st3" d="M131.3,224.4c-1.7,0.6-2.7,2.4-2,4.2"/>
		<path class="st3" d="M169.6,227.5c0-1.4-0.9-2.7-2.2-3.1"/>
		<line class="st3" x1="134.6" y1="221.9" x2="131.3" y2="224.4"/>
		<line class="st3" x1="167.3" y1="224.4" x2="164.1" y2="221.9"/>
		<line class="st3" x1="173.2" y1="147.2" x2="176.1" y2="144.3"/>
		<line class="st3" x1="122.5" y1="144.3" x2="125.5" y2="147.2"/>
		<line class="st3" x1="132.4" y1="230.8" x2="166.3" y2="230.8"/>
		<path class="st3" d="M129.2,228.6c0.5,1.3,1.7,2.2,3.2,2.2"/>
		<path class="st3" d="M166.3,230.8c1.8,0,3.3-1.5,3.3-3.3"/>
		<path class="st3" d="M136.5,215.9c-0.7,2-1.2,4-1.9,6"/>
		<path class="st3" d="M164.1,221.9c-0.7-2-1.2-4-1.9-6"/>
		<path class="st3" d="M138.6,209.7c-0.7,2-1.5,4.2-2.2,6.2"/>
		<path class="st3" d="M162.2,215.9c-0.7-2-1.4-4.2-2.2-6.2"/>
	</g>
</g>
<path class="st4" d="M147.5,221.4c1.2,0,2.5,0,3.7,0"/>
</svg>
