<?xml version="1.0" encoding="UTF-8"?>
<svg width="762.6" height="226.1" version="1.1" viewBox="0 0 762.60028 226.10001" xml:space="preserve" xmlns="http://www.w3.org/2000/svg" xmlns:cc="http://creativecommons.org/ns#" xmlns:dc="http://purl.org/dc/elements/1.1/" xmlns:rdf="http://www.w3.org/1999/02/22-rdf-syntax-ns#"><metadata><rdf:RDF><cc:Work rdf:about=""><dc:format>image/svg+xml</dc:format><dc:type rdf:resource="http://purl.org/dc/dcmitype/StillImage"/><dc:title/></cc:Work></rdf:RDF></metadata>
<style type="text/css">
	.st0{fill:#FFFFFF;}
</style>
<path class="st0" d="m27.7 42.6v40.4h47.1v-40.3h18.1v94.5h-18.1v-38.3h-47.1v38.3h-18.1v-94.5h18.1z"/>
<path class="st0" d="m188.6 121.7c14.3 0 23.3-8.9 23.3-24v-55.1h18.1v55.1c0 24.8-15.8 40.2-41.4 40.2-25.8 0-42-15.4-42-40.2v-55.1h18.2v55.1c0 14.9 9.5 24 23.8 24z"/>
<path class="st0" d="m372.3 89.8c0 27.5-20.8 47.2-49.9 47.2h-38.6v-94.5h39.3c28.5 0.1 49.2 19.7 49.2 47.3zm-18.5 0.2c0-18.5-13.4-31.4-31-31.4h-21v62.6h21.6c17.4-0.1 30.4-12.9 30.4-31.2z"/>
<path class="st0" d="m451.5 58.3c-8.5 0-14 3.1-14 8.9 0 19.2 50.7 8.8 50.6 42.6 0 17.7-15.4 27.9-36.2 27.9-15.1 0-29.8-6.1-39.9-15.1l7.6-15.2c9.7 8.6 22.5 13.9 32.7 13.9 10.1 0 16.2-3.8 16.2-10.4 0-19.7-50.7-8.5-50.7-42.1 0-16.5 14.2-27 35.4-27 12.5 0 25.1 4 34.1 10l-7.3 15.7c-10.3-6.1-21.2-9.2-28.5-9.2z"/>
<path class="st0" d="m696.2 42.6 48.7 64.6v-64.6h17.5v94.5h-17.1l-48.5-64.5v64.5h-17.7v-94.5z"/>
<path class="st0" d="m40.8 177.9-3.7 7.9c-5.7-3.5-11.5-4.9-15.5-4.9-5.2 0-8.6 2-8.6 5.5 0 11.6 28.6 5.4 28.5 24.4 0 9.4-8.3 15.3-19.9 15.3-8.3 0-16.2-3.4-21.6-8.4l3.9-7.7c5.4 5 12.2 7.7 17.9 7.7 6.2 0 9.9-2.3 9.9-6.4 0-11.8-28.6-5.2-28.6-24 0-9.1 7.8-14.7 19.3-14.7 6.8-0.2 13.5 2 18.4 5.3z"/>
<path class="st0" d="m85.1 172.8c13.3 0 20.9 6.6 20.9 18.1 0 11.9-7.6 18.9-20.9 18.9h-12.2v15.9h-8.9v-52.9zm-12.1 29h11.8c8.2 0 12.8-3.5 12.8-10.7 0-7-4.6-10.3-12.8-10.3h-11.8z"/>
<path class="st0" d="m131.1 213.8-5.1 11.9h-9.2l23.3-52.9h9.1l23.1 52.9h-9.5l-5.1-11.9zm13.3-31.5-10 23.5h19.9z"/>
<path class="st0" d="m233.7 180.7-5.2 6.5c-3.9-4.2-9.4-6.7-14.7-6.7-10.6 0-18.9 8.2-18.9 18.6s8.3 18.7 18.9 18.7c5.3 0 10.7-2.4 14.7-6.3l5.3 5.9c-5.4 5.3-13 8.7-20.5 8.7-15.5 0-27.5-11.7-27.5-26.9 0-15 12.2-26.6 27.8-26.6 7.4 0 14.9 3.1 20.1 8.1z"/>
<path class="st0" d="m263.8 180.8v14.3h25.8v8h-25.8v14.6h29.8v8h-38.7v-52.9h37.8v8z"/>
<path class="st0" d="m384 177.9-3.7 7.9c-5.7-3.5-11.5-4.9-15.5-4.9-5.2 0-8.6 2-8.6 5.5 0 11.6 28.6 5.4 28.5 24.4 0 9.4-8.3 15.3-19.9 15.3-8.3 0-16.2-3.4-21.6-8.4l3.9-7.7c5.4 5 12.2 7.7 17.9 7.7 6.2 0 9.9-2.3 9.9-6.4 0-11.8-28.6-5.2-28.6-24 0-9.1 7.8-14.7 19.3-14.7 6.8-0.2 13.5 2 18.4 5.3z"/>
<path class="st0" d="m428.9 225.7h-8.8v-17.3l-19.7-35.6h9l15.1 25.8 14.8-25.8h9.1l-19.4 35.3v17.6z"/>
<path class="st0" d="m503.3 177.9-3.7 7.9c-5.7-3.5-11.5-4.9-15.5-4.9-5.2 0-8.6 2-8.6 5.5 0 11.6 28.6 5.4 28.5 24.4 0 9.4-8.3 15.3-19.9 15.3-8.3 0-16.2-3.4-21.6-8.4l3.9-7.7c5.4 5 12.2 7.7 17.9 7.7 6.2 0 9.9-2.3 9.9-6.4 0-11.8-28.6-5.2-28.6-24 0-9.1 7.8-14.7 19.3-14.7 6.8-0.2 13.5 2 18.4 5.3z"/>
<path class="st0" d="m545.9 180.8v44.9h-8.9v-44.9h-16.7v-8h42.4v8z"/>
<path class="st0" d="m591.3 180.8v14.3h25.8v8h-25.8v14.6h29.8v8h-38.7v-52.9h37.8v8z"/>
<path class="st0" d="m691.7 225.7-0.1-39.5-16.7 34h-5.8l-16.7-34v39.5h-8.4v-52.9h10.6l17.5 35.1 17.4-35.1h10.5v52.9z"/>
<path class="st0" d="m761.9 177.9-3.7 7.9c-5.7-3.5-11.5-4.9-15.5-4.9-5.2 0-8.6 2-8.6 5.5 0 11.6 28.6 5.4 28.5 24.4 0 9.4-8.3 15.3-19.9 15.3-8.3 0-16.2-3.4-21.6-8.4l3.9-7.7c5.4 5 12.2 7.7 17.9 7.7 6.2 0 9.9-2.3 9.9-6.4 0-11.8-28.6-5.2-28.6-24 0-9.1 7.8-14.7 19.3-14.7 6.7-0.2 13.5 2 18.4 5.3z"/>
<g transform="translate(-302.2,-271)">
		<path class="st0" d="m864.8 388.3c0.4-0.2 0.8-0.3 1.2-0.5-9-5.6-15.2-15.5-15.2-27 0-17.8 14.6-31.6 32.1-31.6 17.1 0 31.2 13.4 31.6 30.9 4.8-3.7 9.3-7.7 13.4-11.9 0.9-0.9 1.7-1.9 2.6-2.8-6.5-19.1-25-32.4-47.8-32.4-28.5 0-50.3 20.5-50.3 47.8 0 13 5 24.6 13.4 33.1 6.3-1.2 12.7-3.2 19-5.6z"/>
		<path class="st0" d="m925.9 364.5c-3.2 3.2-6.6 6.1-10.2 8.9-2 1.6-4.1 3.2-6.3 4.7-5.4 8.3-14.5 13.9-24.8 14.5-1.1 0.5-2.3 1.1-3.5 1.6-4.1 1.8-8.3 3.4-12.6 4.8-3.9 1.3-7.8 2.4-11.9 3.2 7.5 4.2 16.4 6.6 26 6.6 28.5 0 50.3-20.9 50.3-48 0-1.3-0.1-2.5-0.2-3.8-2.1 2.7-4.4 5.1-6.8 7.5z"/>
	<path class="st0" d="m920.1 309.6c4.3-0.6 8.9-0.8 13.4 0.9 2.2 0.8 4.5 2.3 6.1 4.4 0.8 1.1 1.4 2.3 1.9 3.5 0.2 0.6 0.4 1.3 0.5 1.9s0.3 1.3 0.3 2c0.2 2.6-0.2 5.1-0.8 7.5s-1.5 4.6-2.5 6.7c-0.5 1.1-1.1 2.1-1.6 3.1l-1.8 3c-1.2 2-2.6 3.8-4 5.6-2.8 3.6-5.9 7-9.1 10.1-3.2 3.2-6.6 6.1-10.2 8.9-3.5 2.8-7.2 5.4-10.9 7.9-3.8 2.5-7.6 4.8-11.5 6.9s-8 4.1-12.1 6c-4.1 1.8-8.3 3.4-12.6 4.8s-8.7 2.6-13.2 3.5c-2.2 0.5-4.5 0.8-6.8 1.1-2.3 0.2-4.6 0.4-7 0.5-2.3 0.1-4.7 0-7.1-0.4-2.4-0.3-4.8-0.8-7.2-1.7s-4.8-2.2-6.8-4.2-3.5-4.6-4-7.3-0.2-5.3 0.5-7.7c0.7-2.3 1.7-4.5 2.8-6.4 2.3-3.9 5.3-7.3 8.5-10.3-2.2 3.8-4.1 7.7-5.5 11.7-0.6 2-1.1 4-1.3 5.9s0 3.8 0.6 5.3c1.2 3 3.9 4.7 7.4 5.4s7.5 0.7 11.5 0.2c8-1 16-3.4 23.8-6.4 3.9-1.5 7.8-3.1 11.5-4.9 3.8-1.8 7.5-3.7 11.2-5.7s7.3-4.1 10.9-6.4c3.6-2.2 7-4.6 10.5-7 6.8-4.9 13.3-10.2 19-16.1 2.8-3 5.5-6.1 7.7-9.4s3.9-6.9 4.3-10.4c0.1-0.4 0-0.9 0.1-1.3 0-0.4-0.1-0.8-0.1-1.3-0.2-0.8-0.4-1.6-0.7-2.4-0.7-1.5-2-2.9-3.7-4-1.6-1.1-3.6-1.9-5.6-2.5-2.1-0.3-4.3-0.7-6.4-1z"/>
</g>
<path class="st0" d="m605.3 7.2c3.6 0 12.5-7.2 12.5-7.2s-7.2 8.9-7.2 12.5 7.2 12.5 7.2 12.5-8.9-7.2-12.5-7.2-12.5 7.2-12.5 7.2 7.2-8.9 7.2-12.5-7.2-12.5-7.2-12.5 8.9 7.2 12.5 7.2z"/>
<path class="st0" d="m652.8 79.2c2.6 0 9-5.2 9-5.2s-5.2 6.4-5.2 9 5.2 9 5.2 9-6.4-5.2-9-5.2-9 5.2-9 5.2 5.2-6.4 5.2-9-5.2-9-5.2-9 6.4 5.2 9 5.2z"/>
</svg>
