<?xml version="1.0" encoding="UTF-8" standalone="no"?>
<svg
   xmlns:dc="http://purl.org/dc/elements/1.1/"
   xmlns:cc="http://creativecommons.org/ns#"
   xmlns:rdf="http://www.w3.org/1999/02/22-rdf-syntax-ns#"
   xmlns:svg="http://www.w3.org/2000/svg"
   xmlns="http://www.w3.org/2000/svg"
   xmlns:sodipodi="http://sodipodi.sourceforge.net/DTD/sodipodi-0.dtd"
   xmlns:inkscape="http://www.inkscape.org/namespaces/inkscape"
   inkscape:version="1.0beta2 (2b71d25, 2019-12-03)"
   height="226.10001"
   width="762.60028"
   sodipodi:docname="HSSblack.svg"
   xml:space="preserve"
   viewBox="0 0 762.60028 226.10001"
   y="0px"
   x="0px"
   id="Layer_1"
   version="1.1"><metadata
   id="metadata418"><rdf:RDF><cc:Work
       rdf:about=""><dc:format>image/svg+xml</dc:format><dc:type
         rdf:resource="http://purl.org/dc/dcmitype/StillImage" /><dc:title></dc:title></cc:Work></rdf:RDF></metadata><defs
   id="defs416" /><sodipodi:namedview
   inkscape:current-layer="Layer_1"
   inkscape:window-maximized="0"
   inkscape:window-y="23"
   inkscape:window-x="0"
   inkscape:cy="110"
   inkscape:cx="421.8"
   inkscape:zoom="0.35416667"
   fit-margin-bottom="0"
   fit-margin-right="0"
   fit-margin-left="0"
   fit-margin-top="0"
   showgrid="false"
   id="namedview414"
   inkscape:window-height="855"
   inkscape:window-width="1440"
   inkscape:pageshadow="2"
   inkscape:pageopacity="0"
   guidetolerance="10"
   gridtolerance="10"
   objecttolerance="10"
   borderopacity="1"
   inkscape:document-rotation="0"
   bordercolor="#666666"
   pagecolor="#ffffff" />
<path
   inkscape:connector-curvature="0"
   id="path365"
   d="M 27.7,42.6 V 83 H 74.8 V 42.7 h 18.1 v 94.5 H 74.8 V 98.9 H 27.7 v 38.3 H 9.6 V 42.7 h 18.1 z" />
<path
   inkscape:connector-curvature="0"
   id="path367"
   d="m 188.6,121.7 c 14.3,0 23.3,-8.9 23.3,-24 V 42.6 H 230 v 55.1 c 0,24.8 -15.8,40.2 -41.4,40.2 -25.8,0 -42,-15.4 -42,-40.2 V 42.6 h 18.2 v 55.1 c 0,14.9 9.5,24 23.8,24 z" />
<path
   inkscape:connector-curvature="0"
   id="path369"
   d="m 372.3,89.8 c 0,27.5 -20.8,47.2 -49.9,47.2 H 283.8 V 42.5 h 39.3 c 28.5,0.1 49.2,19.7 49.2,47.3 z M 353.8,90 c 0,-18.5 -13.4,-31.4 -31,-31.4 h -21 v 62.6 h 21.6 c 17.4,-0.1 30.4,-12.9 30.4,-31.2 z" />
<path
   inkscape:connector-curvature="0"
   id="path371"
   d="m 451.5,58.3 c -8.5,0 -14,3.1 -14,8.9 0,19.2 50.7,8.8 50.6,42.6 0,17.7 -15.4,27.9 -36.2,27.9 -15.1,0 -29.8,-6.1 -39.9,-15.1 l 7.6,-15.2 c 9.7,8.6 22.5,13.9 32.7,13.9 10.1,0 16.2,-3.8 16.2,-10.4 0,-19.7 -50.7,-8.5 -50.7,-42.1 0,-16.5 14.2,-27 35.4,-27 12.5,0 25.1,4 34.1,10 L 480,67.5 c -10.3,-6.1 -21.2,-9.2 -28.5,-9.2 z" />
<path
   inkscape:connector-curvature="0"
   id="path373"
   d="m 696.2,42.6 48.7,64.6 V 42.6 h 17.5 v 94.5 H 745.3 L 696.8,72.6 v 64.5 H 679.1 V 42.6 Z" />
<path
   inkscape:connector-curvature="0"
   id="path375"
   d="m 40.8,177.9 -3.7,7.9 c -5.7,-3.5 -11.5,-4.9 -15.5,-4.9 -5.2,0 -8.6,2 -8.6,5.5 0,11.6 28.6,5.4 28.5,24.4 0,9.4 -8.3,15.3 -19.9,15.3 -8.3,0 -16.2,-3.4 -21.6,-8.4 L 3.9,210 c 5.4,5 12.2,7.7 17.9,7.7 6.2,0 9.9,-2.3 9.9,-6.4 0,-11.8 -28.6,-5.2 -28.6,-24 0,-9.1 7.8,-14.7 19.3,-14.7 6.8,-0.2 13.5,2 18.4,5.3 z" />
<path
   inkscape:connector-curvature="0"
   id="path377"
   d="m 85.1,172.8 c 13.3,0 20.9,6.6 20.9,18.1 0,11.9 -7.6,18.9 -20.9,18.9 H 72.9 v 15.9 H 64 v -52.9 z m -12.1,29 h 11.8 c 8.2,0 12.8,-3.5 12.8,-10.7 0,-7 -4.6,-10.3 -12.8,-10.3 H 73 Z" />
<path
   inkscape:connector-curvature="0"
   id="path379"
   d="m 131.1,213.8 -5.1,11.9 h -9.2 l 23.3,-52.9 h 9.1 l 23.1,52.9 h -9.5 l -5.1,-11.9 z m 13.3,-31.5 -10,23.5 h 19.9 z" />
<path
   inkscape:connector-curvature="0"
   id="path381"
   d="m 233.7,180.7 -5.2,6.5 c -3.9,-4.2 -9.4,-6.7 -14.7,-6.7 -10.6,0 -18.9,8.2 -18.9,18.6 0,10.4 8.3,18.7 18.9,18.7 5.3,0 10.7,-2.4 14.7,-6.3 l 5.3,5.9 c -5.4,5.3 -13,8.7 -20.5,8.7 -15.5,0 -27.5,-11.7 -27.5,-26.9 0,-15 12.2,-26.6 27.8,-26.6 7.4,0 14.9,3.1 20.1,8.1 z" />
<path
   inkscape:connector-curvature="0"
   id="path383"
   d="m 263.8,180.8 v 14.3 h 25.8 v 8 h -25.8 v 14.6 h 29.8 v 8 h -38.7 v -52.9 h 37.8 v 8 z" />
<path
   inkscape:connector-curvature="0"
   id="path385"
   d="m 384,177.9 -3.7,7.9 c -5.7,-3.5 -11.5,-4.9 -15.5,-4.9 -5.2,0 -8.6,2 -8.6,5.5 0,11.6 28.6,5.4 28.5,24.4 0,9.4 -8.3,15.3 -19.9,15.3 -8.3,0 -16.2,-3.4 -21.6,-8.4 l 3.9,-7.7 c 5.4,5 12.2,7.7 17.9,7.7 6.2,0 9.9,-2.3 9.9,-6.4 0,-11.8 -28.6,-5.2 -28.6,-24 0,-9.1 7.8,-14.7 19.3,-14.7 6.8,-0.2 13.5,2 18.4,5.3 z" />
<path
   inkscape:connector-curvature="0"
   id="path387"
   d="m 428.9,225.7 h -8.8 v -17.3 l -19.7,-35.6 h 9 l 15.1,25.8 14.8,-25.8 h 9.1 L 429,208.1 v 17.6 z" />
<path
   inkscape:connector-curvature="0"
   id="path389"
   d="m 503.3,177.9 -3.7,7.9 c -5.7,-3.5 -11.5,-4.9 -15.5,-4.9 -5.2,0 -8.6,2 -8.6,5.5 0,11.6 28.6,5.4 28.5,24.4 0,9.4 -8.3,15.3 -19.9,15.3 -8.3,0 -16.2,-3.4 -21.6,-8.4 l 3.9,-7.7 c 5.4,5 12.2,7.7 17.9,7.7 6.2,0 9.9,-2.3 9.9,-6.4 0,-11.8 -28.6,-5.2 -28.6,-24 0,-9.1 7.8,-14.7 19.3,-14.7 6.8,-0.2 13.5,2 18.4,5.3 z" />
<path
   inkscape:connector-curvature="0"
   id="path391"
   d="m 545.9,180.8 v 44.9 H 537 v -44.9 h -16.7 v -8 h 42.4 v 8 z" />
<path
   inkscape:connector-curvature="0"
   id="path393"
   d="m 591.3,180.8 v 14.3 h 25.8 v 8 h -25.8 v 14.6 h 29.8 v 8 h -38.7 v -52.9 h 37.8 v 8 z" />
<path
   inkscape:connector-curvature="0"
   id="path395"
   d="m 691.7,225.7 -0.1,-39.5 -16.7,34 h -5.8 l -16.7,-34 v 39.5 H 644 v -52.9 h 10.6 l 17.5,35.1 17.4,-35.1 H 700 v 52.9 z" />
<path
   inkscape:connector-curvature="0"
   id="path397"
   d="m 761.9,177.9 -3.7,7.9 c -5.7,-3.5 -11.5,-4.9 -15.5,-4.9 -5.2,0 -8.6,2 -8.6,5.5 0,11.6 28.6,5.4 28.5,24.4 0,9.4 -8.3,15.3 -19.9,15.3 -8.3,0 -16.2,-3.4 -21.6,-8.4 L 725,210 c 5.4,5 12.2,7.7 17.9,7.7 6.2,0 9.9,-2.3 9.9,-6.4 0,-11.8 -28.6,-5.2 -28.6,-24 0,-9.1 7.8,-14.7 19.3,-14.7 6.7,-0.2 13.5,2 18.4,5.3 z" />
<g
   transform="translate(-261.2,-274)"
   id="g407">
	<g
   id="g403">
		<path
   inkscape:connector-curvature="0"
   id="path399"
   d="m 823.8,391.3 c 0.4,-0.2 0.8,-0.3 1.2,-0.5 -9,-5.6 -15.2,-15.5 -15.2,-27 0,-17.8 14.6,-31.6 32.1,-31.6 17.1,0 31.2,13.4 31.6,30.9 4.8,-3.7 9.3,-7.7 13.4,-11.9 0.9,-0.9 1.7,-1.9 2.6,-2.8 -6.5,-19.1 -25,-32.4 -47.8,-32.4 -28.5,0 -50.3,20.5 -50.3,47.8 0,13 5,24.6 13.4,33.1 6.3,-1.2 12.7,-3.2 19,-5.6 z" />
		<path
   inkscape:connector-curvature="0"
   id="path401"
   d="m 884.9,367.5 c -3.2,3.2 -6.6,6.1 -10.2,8.9 -2,1.6 -4.1,3.2 -6.3,4.7 -5.4,8.3 -14.5,13.9 -24.8,14.5 -1.1,0.5 -2.3,1.1 -3.5,1.6 -4.1,1.8 -8.3,3.4 -12.6,4.8 -3.9,1.3 -7.8,2.4 -11.9,3.2 7.5,4.2 16.4,6.6 26,6.6 28.5,0 50.3,-20.9 50.3,-48 0,-1.3 -0.1,-2.5 -0.2,-3.8 -2.1,2.7 -4.4,5.1 -6.8,7.5 z" />
	</g>
	<path
   inkscape:connector-curvature="0"
   id="path405"
   d="m 879.1,312.6 c 4.3,-0.6 8.9,-0.8 13.4,0.9 2.2,0.8 4.5,2.3 6.1,4.4 0.8,1.1 1.4,2.3 1.9,3.5 0.2,0.6 0.4,1.3 0.5,1.9 0.1,0.6 0.3,1.3 0.3,2 0.2,2.6 -0.2,5.1 -0.8,7.5 -0.6,2.4 -1.5,4.6 -2.5,6.7 -0.5,1.1 -1.1,2.1 -1.6,3.1 -0.6,1 -1.2,2 -1.8,3 -1.2,2 -2.6,3.8 -4,5.6 -2.8,3.6 -5.9,7 -9.1,10.1 -3.2,3.2 -6.6,6.1 -10.2,8.9 -3.5,2.8 -7.2,5.4 -10.9,7.9 -3.8,2.5 -7.6,4.8 -11.5,6.9 -3.9,2.1 -8,4.1 -12.1,6 -4.1,1.8 -8.3,3.4 -12.6,4.8 -4.3,1.4 -8.7,2.6 -13.2,3.5 -2.2,0.5 -4.5,0.8 -6.8,1.1 -2.3,0.2 -4.6,0.4 -7,0.5 -2.3,0.1 -4.7,0 -7.1,-0.4 -2.4,-0.3 -4.8,-0.8 -7.2,-1.7 -2.4,-0.9 -4.8,-2.2 -6.8,-4.2 -2,-2 -3.5,-4.6 -4,-7.3 -0.5,-2.7 -0.2,-5.3 0.5,-7.7 0.7,-2.3 1.7,-4.5 2.8,-6.4 2.3,-3.9 5.3,-7.3 8.5,-10.3 -2.2,3.8 -4.1,7.7 -5.5,11.7 -0.6,2 -1.1,4 -1.3,5.9 -0.2,1.9 0,3.8 0.6,5.3 1.2,3 3.9,4.7 7.4,5.4 3.5,0.7 7.5,0.7 11.5,0.2 8,-1 16,-3.4 23.8,-6.4 3.9,-1.5 7.8,-3.1 11.5,-4.9 3.8,-1.8 7.5,-3.7 11.2,-5.7 3.7,-2 7.3,-4.1 10.9,-6.4 3.6,-2.2 7,-4.6 10.5,-7 6.8,-4.9 13.3,-10.2 19,-16.1 2.8,-3 5.5,-6.1 7.7,-9.4 2.2,-3.3 3.9,-6.9 4.3,-10.4 0.1,-0.4 0,-0.9 0.1,-1.3 0,-0.4 -0.1,-0.8 -0.1,-1.3 -0.2,-0.8 -0.4,-1.6 -0.7,-2.4 -0.7,-1.5 -2,-2.9 -3.7,-4 -1.6,-1.1 -3.6,-1.9 -5.6,-2.5 -2.1,-0.3 -4.3,-0.7 -6.4,-1 z" />
</g>
<path
   inkscape:connector-curvature="0"
   id="path409"
   d="m 605.3,7.2 c 3.6,0 12.5,-7.2 12.5,-7.2 0,0 -7.2,8.9 -7.2,12.5 0,3.6 7.2,12.5 7.2,12.5 0,0 -8.9,-7.2 -12.5,-7.2 -3.6,0 -12.5,7.2 -12.5,7.2 0,0 7.2,-8.9 7.2,-12.5 C 600,8.9 592.8,0 592.8,0 c 0,0 8.9,7.2 12.5,7.2 z" />
<path
   inkscape:connector-curvature="0"
   id="path411"
   d="m 652.8,79.2 c 2.6,0 9,-5.2 9,-5.2 0,0 -5.2,6.4 -5.2,9 0,2.6 5.2,9 5.2,9 0,0 -6.4,-5.2 -9,-5.2 -2.6,0 -9,5.2 -9,5.2 0,0 5.2,-6.4 5.2,-9 0,-2.6 -5.2,-9 -5.2,-9 0,0 6.4,5.2 9,5.2 z" />
</svg>
