<?xml version="1.0" encoding="utf-8"?>
<!-- Generator: Adobe Illustrator 25.0.0, SVG Export Plug-In . SVG Version: 6.00 Build 0)  -->
<svg version="1.1"
	 id="Layer_1" inkscape:version="1.0beta2 (2b71d25, 2019-12-03)" sodipodi:docname="favicon.svg" xmlns:cc="http://creativecommons.org/ns#" xmlns:dc="http://purl.org/dc/elements/1.1/" xmlns:inkscape="http://www.inkscape.org/namespaces/inkscape" xmlns:rdf="http://www.w3.org/1999/02/22-rdf-syntax-ns#" xmlns:sodipodi="http://sodipodi.sourceforge.net/DTD/sodipodi-0.dtd" xmlns:svg="http://www.w3.org/2000/svg"
	 xmlns="http://www.w3.org/2000/svg" xmlns:xlink="http://www.w3.org/1999/xlink" x="0px" y="0px" viewBox="0 0 150 150"
	 style="enable-background:new 0 0 150 150;" xml:space="preserve">
<style type="text/css">
	.st0{fill:#FFFFFF;}
</style>
<sodipodi:namedview  bordercolor="#666666" borderopacity="1" fit-margin-bottom="0" fit-margin-left="0" fit-margin-right="0" fit-margin-top="0" gridtolerance="10" guidetolerance="10" id="namedview266" inkscape:current-layer="Layer_1" inkscape:cx="-450.58071" inkscape:cy="76.020205" inkscape:document-rotation="0" inkscape:pagecheckerboard="true" inkscape:pageopacity="0" inkscape:pageshadow="2" inkscape:window-height="855" inkscape:window-maximized="0" inkscape:window-width="1440" inkscape:window-x="0" inkscape:window-y="23" inkscape:zoom="0.84244792" objecttolerance="10" pagecolor="#ffffff" showgrid="false">
	</sodipodi:namedview>
<g>
	<g id="g259" transform="translate(-812.85171,-271)">
		<g id="g255">
			<path id="path251" inkscape:connector-curvature="0" class="st0" d="M864.5,394c0.4-0.2,0.8-0.3,1.2-0.5
				c-8.9-5.5-15.1-15.4-15.1-26.8c0-17.6,14.5-31.3,31.8-31.3c16.9,0,30.9,13.3,31.3,30.6c4.8-3.7,9.2-7.6,13.3-11.8
				c0.9-0.9,1.7-1.9,2.6-2.8c-6.4-18.9-24.8-32.1-47.4-32.1c-28.2,0-49.8,20.3-49.8,47.4c0,12.9,5,24.4,13.3,32.8
				C851.9,398.3,858.2,396.3,864.5,394z"/>
			<path id="path253" inkscape:connector-curvature="0" class="st0" d="M925,370.4c-3.2,3.2-6.5,6-10.1,8.8c-2,1.6-4.1,3.2-6.2,4.7
				c-5.4,8.2-14.4,13.8-24.6,14.4c-1.1,0.5-2.3,1.1-3.5,1.6c-4.1,1.8-8.2,3.4-12.5,4.8c-3.9,1.3-7.7,2.4-11.8,3.2
				c7.4,4.2,16.2,6.5,25.8,6.5c28.2,0,49.8-20.7,49.8-47.6c0-1.3-0.1-2.5-0.2-3.8C929.7,365.6,927.4,368,925,370.4L925,370.4z"/>
		</g>
		<path id="path257" inkscape:connector-curvature="0" class="st0" d="M919.3,316c4.3-0.6,8.8-0.8,13.3,0.9c2.2,0.8,4.5,2.3,6,4.4
			c0.8,1.1,1.4,2.3,1.9,3.5c0.2,0.6,0.4,1.3,0.5,1.9c0.1,0.6,0.3,1.3,0.3,2c0.2,2.6-0.2,5.1-0.8,7.4s-1.5,4.6-2.5,6.6
			c-0.5,1.1-1.1,2.1-1.6,3.1c-0.6,1-1.2,2-1.8,3c-1.2,2-2.6,3.8-4,5.5c-2.8,3.6-5.8,6.9-9,10c-3.2,3.2-6.5,6-10.1,8.8
			c-3.5,2.8-7.1,5.4-10.8,7.8c-3.8,2.5-7.5,4.8-11.4,6.8c-3.9,2.1-7.9,4.1-12,5.9c-4.1,1.8-8.2,3.4-12.5,4.8
			c-4.3,1.4-8.6,2.6-13.1,3.5c-2.2,0.5-4.5,0.8-6.7,1.1c-2.3,0.2-4.6,0.4-6.9,0.5c-2.3,0.1-4.7,0-7-0.4c-2.4-0.3-4.8-0.8-7.1-1.7
			c-2.4-0.9-4.8-2.2-6.7-4.2c-2-2-3.5-4.6-4-7.2c-0.5-2.7-0.2-5.3,0.5-7.6c0.7-2.3,1.7-4.5,2.8-6.3c2.3-3.9,5.3-7.2,8.4-10.2
			c-2.2,3.8-4.1,7.6-5.4,11.6c-0.6,2-1.1,4-1.3,5.8c-0.2,1.9,0,3.8,0.6,5.3c1.2,3,3.9,4.7,7.3,5.4c3.5,0.7,7.4,0.7,11.4,0.2
			c7.9-1,15.9-3.4,23.6-6.3c3.9-1.5,7.7-3.1,11.4-4.9c3.8-1.8,7.4-3.7,11.1-5.6c3.7-2,7.2-4.1,10.8-6.3c3.6-2.2,6.9-4.6,10.4-6.9
			c6.7-4.9,13.2-10.1,18.8-16c2.8-3,5.4-6,7.6-9.3c2.2-3.3,3.9-6.8,4.3-10.3c0.1-0.4,0-0.9,0.1-1.3c0-0.4-0.1-0.8-0.1-1.3
			c-0.2-0.8-0.4-1.6-0.7-2.4c-0.7-1.5-2-2.9-3.7-4c-1.6-1.1-3.6-1.9-5.5-2.5C923.5,316.7,921.3,316.3,919.3,316L919.3,316z"/>
	</g>
	<path id="path261" inkscape:connector-curvature="0" class="st0" d="M93.9,13.9c3.6,0,12.4-7.1,12.4-7.1s-7.1,8.8-7.1,12.4
		s7.1,12.4,7.1,12.4s-8.8-7.1-12.4-7.1c-3.6,0-12.4,7.1-12.4,7.1s7.1-8.8,7.1-12.4S81.5,6.7,81.5,6.7S90.4,13.9,93.9,13.9z"/>
	<path id="path263" inkscape:connector-curvature="0" class="st0" d="M141,85.2c2.6,0,8.9-5.2,8.9-5.2s-5.2,6.3-5.2,8.9
		s5.2,8.9,5.2,8.9s-6.3-5.2-8.9-5.2s-8.9,5.2-8.9,5.2s5.2-6.3,5.2-8.9s-5.2-8.9-5.2-8.9S138.4,85.2,141,85.2z"/>
</g>
</svg>
